<svg xmlns="http://www.w3.org/2000/svg" viewBox="0 0 200 200"><defs><style>.cls-1{fill:none;}</style></defs><title>资源 1</title><g id="图层_2" data-name="图层 2"><g id="图层_1-2" data-name="图层 1"><rect class="cls-1" width="200" height="200"/><path d="M169.41,90H167.2V65.6a16.86,16.86,0,0,0-16.84-16.84h-33L74.68,23.19A15.17,15.17,0,0,0,53.91,28.4L41.72,48.76H32.35A16.86,16.86,0,0,0,15.52,65.6v92.77a16.86,16.86,0,0,0,16.84,16.84h118a16.86,16.86,0,0,0,16.84-16.84V133.94h2.21a14.85,14.85,0,0,0,14.84-14.84V104.88A14.85,14.85,0,0,0,169.41,90ZM61.86,33.17a5.88,5.88,0,0,1,8.06-2L99.35,48.77H52.52Zm95,125.21a6.54,6.54,0,0,1-6.53,6.53h-118a6.54,6.54,0,0,1-6.53-6.53V65.6a6.54,6.54,0,0,1,6.53-6.53h118a6.54,6.54,0,0,1,6.53,6.53V90H143.18a14.85,14.85,0,0,0-14.84,14.84V119.1a14.85,14.85,0,0,0,14.84,14.84H156.9Zm19.62-39.27a7.11,7.11,0,0,1-7.1,7.1H143.18a7.11,7.11,0,0,1-7.1-7.1V104.88a7.11,7.11,0,0,1,7.1-7.1h26.23a7.11,7.11,0,0,1,7.1,7.1Z"/><path d="M145.83,112a7.13,7.13,0,1,0,7.13-7.13A7.13,7.13,0,0,0,145.83,112Z"/></g></g></svg>