<svg xmlns="http://www.w3.org/2000/svg" viewBox="0 0 693.76 794.24"><title>资源 1</title><g id="图层_2" data-name="图层 2"><g id="图层_1-2" data-name="图层 1"><path d="M95.36,794.24A95.6,95.6,0,0,1,0,698.88v-503a95.6,95.6,0,0,1,95.36-95.36H176V50.56h65.28l1.28-1.92C264.32,18.56,304.64,0,346.88,0,389.76,0,428.8,17.92,451.2,48.64l1.28,1.92h65.28v49.92H598.4a95.6,95.6,0,0,1,95.36,95.36v503a95.6,95.6,0,0,1-95.36,95.36Zm0-653.44a55.72,55.72,0,0,0-55.68,55.68v503A55.72,55.72,0,0,0,95.36,755.2h503a55.72,55.72,0,0,0,55.68-55.68V195.84a55.72,55.72,0,0,0-55.68-55.68H517.76V240.64H176V140.8ZM217,201H478.72V90.24H422.4c-3.2-28.16-35.84-50.56-74.88-50.56s-71,22.4-74.88,50.56H217ZM170.88,643.2a19.84,19.84,0,1,1,0-39.68h352a19.84,19.84,0,1,1,0,39.68Zm0-125.44a19.84,19.84,0,0,1,0-39.68h352a19.84,19.84,0,0,1,0,39.68Zm0-126.08a19.84,19.84,0,1,1,0-39.68h352a19.94,19.94,0,0,1,19.84,19.84c0,11.52-8.32,19.84-19.84,19.84Zm0,0"/></g></g></svg>