<svg xmlns="http://www.w3.org/2000/svg" xmlns:xlink="http://www.w3.org/1999/xlink" viewBox="0 0 594.56 597.61"><defs><style>.cls-1{fill:none;}.cls-2{clip-path:url(#clip-path);}</style><clipPath id="clip-path" transform="translate(0 -0.23)"><rect class="cls-1" width="594.96" height="598.8"/></clipPath></defs><title>资源 1</title><g id="图层_2" data-name="图层 2"><g id="图层_1-2" data-name="图层 1"><g class="cls-2"><path d="M588.66,487.38l-.34-.74-84.1-151.16a18.1,18.1,0,0,0-31.64,17.6l83.29,149.69c3.31,7.77,2.56,11.8,2,12.73a3.56,3.56,0,0,1-2.71.83H303.65l29-33.93A18.11,18.11,0,1,0,305,458.9l-50.22,58.86a18.13,18.13,0,0,0,2,25.53l58.86,50.22A18.11,18.11,0,1,0,339.19,566L323.5,552.57H555.07c13.69,0,26-6.47,33.1-17.31,4.84-7.47,11.32-23.54.5-47.89ZM407.89,236.81l-24.27-9.1a18.11,18.11,0,0,0-12.71,33.91l72.43,27.16a18.11,18.11,0,0,0,23.31-10.6l27.17-72.43a18.11,18.11,0,1,0-33.91-12.71l-14.07,37.51L329.43,21.38C322.57,7.92,311.53.23,299.07.23h0c-13.11,0-24.82,8.35-32.17,22.88L198.12,145.29A18.1,18.1,0,1,0,229.68,163L298.61,40.5Zm-224.53-6.16A18.11,18.11,0,0,0,161,218.2L86.58,239.37a18.11,18.11,0,0,0,5,35.53,17.8,17.8,0,0,0,5-.7l34.65-9.87L2.9,492.31l-.59,2.1c-4.51,16.08-2.35,31,6.08,42.14,7.71,10.15,19.89,16,33.43,16H178.07a18.11,18.11,0,1,0,0-36.23H41.83c-1,0-3.45-.16-4.59-1.65-.93-1.23-1.49-4.09-.53-8.62L161.14,284.88,169.69,315a18.12,18.12,0,0,0,17.41,13.16,17.87,17.87,0,0,0,5-.7,18.09,18.09,0,0,0,12.45-22.37Zm0,0" transform="translate(0 -0.23)"/></g></g></g></svg>