<svg xmlns="http://www.w3.org/2000/svg" viewBox="0 0 280 280"><defs><style>.cls-1{fill:#e83c49;}.cls-2,.cls-3{fill:none;}.cls-3{stroke:#e83c49;stroke-miterlimit:10;stroke-width:8px;}</style></defs><title>资源 1</title><g id="图层_2" data-name="图层 2"><g id="图层_1-2" data-name="图层 1"><path class="cls-1" d="M125.25,160.7,122,163.93a2.15,2.15,0,0,0-.14,3l8.93,8.93a2.16,2.16,0,0,0,3.09-.09l3.23-3.23a2.16,2.16,0,0,0,.09-3.09l-8.93-8.93a2.15,2.15,0,0,0-3,.14Zm0,0"/><path class="cls-1" d="M152.22,62.29l-90,90c-3.55,3.55-3.79,9.12-.51,12.39l17.86,17.86c5.33-5.33,13.65-5.61,18.56-.7s4.63,13.23-.7,18.56l17.86,17.86c3.27,3.27,8.84,3,12.39-.51l90-90c3.51-3.51,3.74-9.07.47-12.34L200.28,97.54c-5.33,5.33-13.65,5.61-18.56.7s-4.63-13.23.7-18.56L164.57,61.82c-3.27-3.27-8.84-3-12.34.47Zm19.12,19.12c-3.42,8-2.15,17.2,3.93,23.28s15.29,7.34,23.28,3.93l10.19,10.19a4.43,4.43,0,0,1-.23,6.22l-57.88,57.88-4.49-4.49a2.2,2.2,0,0,0-3.09.09l-3.23,3.23a2.2,2.2,0,0,0-.09,3.09l4.49,4.49-19.31,19.31a4.37,4.37,0,0,1-6.17.19l-10.19-10.19c3.37-7.95,2.11-17.16-4-23.24s-15.29-7.34-23.24-4L71.15,161.22a4.37,4.37,0,0,1,.19-6.17l19.31-19.31,4.49,4.49a2.2,2.2,0,0,0,3.09-.09l3.23-3.23a2.2,2.2,0,0,0,.09-3.09l-4.49-4.49,57.88-57.88a4.42,4.42,0,0,1,6.22-.23Zm0,0"/><rect class="cls-2" x="67.21" y="93.57" width="145.57" height="92.86" transform="translate(-57.99 140) rotate(-45)"/><path class="cls-1" d="M107.39,142.84l-3.23,3.23a2.16,2.16,0,0,0-.09,3.09l8.93,8.93a2.15,2.15,0,0,0,3-.14l3.23-3.23a2.15,2.15,0,0,0,.14-3l-8.93-8.93a2.16,2.16,0,0,0-3.09.09Zm0,0"/><circle class="cls-3" cx="140" cy="140" r="136"/></g></g></svg>