<svg xmlns="http://www.w3.org/2000/svg" viewBox="0 0 712.92 713.76"><defs><style>.cls-1{fill:#42a838;}.cls-2{fill:none;}</style></defs><title>资源 1</title><g id="图层_2" data-name="图层 2"><g id="图层_1-2" data-name="图层 1"><path class="cls-1" d="M403.38,356.16c-8.12,0-16.25,7.55-16.25,16.83,0,7.55,8.13,15.09,16.25,15.09,12.2,0,20.9-7.55,20.9-15.09,0-9.29-8.71-16.83-20.9-16.83Zm0,0"/><path class="cls-1" d="M350,277.78c12.77,0,20.9-8.13,20.9-20.32,0-12.77-8.13-20.32-20.9-20.32-12.19,0-23.8,7.55-23.8,20.32,0,12.2,11.61,20.32,23.8,20.32Zm0,0"/><path class="cls-1" d="M356.35.1C159.54.1,0,159.64,0,356.45S159.54,712.8,356.35,712.8,712.7,553.26,712.7,356.45,553.16.1,356.35.1ZM289,446.73c-21.48,0-37.16-3.48-57.48-9.29l-58.64,29.61,16.84-49.93c-41.22-29-65.61-65.6-65.61-110.31,0-79,74.32-139.34,164.89-139.34,80.12,0,151.54,47.61,165.47,115a80.51,80.51,0,0,0-15.68-1.74c-79,0-139.92,59.22-139.92,130.63a139.93,139.93,0,0,0,4.64,34.84,121.93,121.93,0,0,1-14.52.58Zm242.11,56.9,11.61,41.81-44.13-25c-16.84,3.48-33.09,8.71-49.93,8.71-77.8,0-139.34-53.41-139.34-119.6S370.87,290,448.67,290c73.73,0,139.92,53.41,139.92,119.6,0,37.16-25,70.25-57.48,94.05Zm0,0"/><rect class="cls-2" x="0.12" width="712.8" height="713.76"/><path class="cls-1" d="M235,237.14c-12.19,0-25,7.55-25,20.32,0,12.2,12.77,20.32,25,20.32,11.61,0,20.9-8.13,20.9-20.32,0-12.77-9.29-20.32-20.9-20.32Zm0,0"/><path class="cls-1" d="M494.54,356.16c-8.71,0-16.26,7.55-16.26,16.83,0,7.55,7.55,15.09,16.26,15.09,11.61,0,20.32-7.55,20.32-15.09,0-9.29-8.71-16.83-20.32-16.83Zm0,0"/></g></g></svg>