<svg xmlns="http://www.w3.org/2000/svg" viewBox="0 0 560.77 360"><defs><style>.cls-1{fill:#40a039;}.cls-2,.cls-3{fill:#fff;}.cls-3{font-size:70px;font-family:PingFang-SC-Regular, PingFang SC;}</style></defs><title>资源 1</title><g id="图层_2" data-name="图层 2"><g id="图层_1-2" data-name="图层 1"><rect class="cls-1" width="560.77" height="360" rx="40" ry="40"/><path class="cls-2" d="M320.22,96.67a69.47,69.47,0,0,1,7.67.47C321,65,286.68,41.19,247.51,41.19c-43.79,0-79.67,29.85-79.67,67.75,0,21.88,11.93,39.85,31.88,53.78l-8,24,27.85-14c10,2,18,4,27.91,4,2.5,0,5-.12,7.44-.32a59.35,59.35,0,0,1-2.46-16.69c0-34.8,29.89-63,67.73-63Zm-42.84-21.6c6,0,10,3.95,10,9.94s-4,10-10,10-12-4-12-10,6-9.94,12-9.94ZM221.63,95c-6,0-12-4-12-10s6-9.94,12-9.94S231.57,79,231.57,85s-4,10-9.95,10Zm0,0"/><path class="cls-2" d="M392.93,158.76c0-31.85-31.87-57.81-67.67-57.81-37.9,0-67.76,26-67.76,57.81s29.85,57.81,67.76,57.81c7.93,0,15.94-2,23.9-4l21.85,12-6-19.91c16-12,27.91-27.9,27.91-45.87Zm-89.64-10c-4,0-8-3.95-8-8s4-8,8-8c6,0,10,4,10,8s-3.95,8-10,8Zm43.82,0c-3.94,0-7.91-3.95-7.91-8s4-8,7.91-8c6,0,10,4,10,8s-4,8-10,8Zm0,0"/><text class="cls-3" transform="translate(140.38 318.81)">微信支付</text></g></g></svg>