<svg xmlns="http://www.w3.org/2000/svg" viewBox="0 0 819.2 819.2"><title>资源 1</title><g id="图层_2" data-name="图层 2"><g id="图层_1-2" data-name="图层 1"><path d="M409.6,0C183.38,0,0,183.38,0,409.59S183.38,819.2,409.6,819.2,819.2,635.82,819.2,409.59,635.82,0,409.6,0Zm169,504.2c0,11.76-10.47,23.76-28.68,23.76l-100.3-.31v82.08c0,18.21-17,36.74-35.18,36.74s-35.17-18.52-35.17-36.74V527.66L279,528c-18.2,0-28.75-7.27-28.75-35.49,0-11.72,5.24-23.45,23.45-23.45H379.22V410.4H273.69c-18.2,0-23.45-13.65-23.45-23.45,0-18.23,5.24-35.17,23.45-35.17h82.08l-92.15-108.9a33.08,33.08,0,1,1,50.27-43L414.47,317.1,515.06,199.84a33.08,33.08,0,1,1,50.26,43L473,351.77h82.08c18.21,0,23.45,14.49,23.45,23.45,0,18.2-5.24,35.18-23.45,35.18H449.58V469H555.11s23.45-1.77,23.45,35.18Zm0,0"/></g></g></svg>