<svg xmlns="http://www.w3.org/2000/svg" viewBox="0 0 560.77 360"><defs><style>.cls-1{fill:#2596d4;}.cls-2{font-size:70px;font-family:PingFang-SC-Regular, PingFang SC;}.cls-2,.cls-3{fill:#fff;}</style></defs><title>资源 2</title><g id="图层_2" data-name="图层 2"><g id="图层_1-2" data-name="图层 1"><rect class="cls-1" width="560.77" height="360" rx="40" ry="40"/><text class="cls-2" transform="translate(175.38 318.81)">支付宝</text><path class="cls-3" d="M164.38,165.44c0-12,7.09-25.1,36.14-27S268.76,159,268.76,159s-29,35.25-63.09,35.25-41.29-16.75-41.29-28.81M242.74,32V60.68H183.81v12.6l58.93-.43V92H195.47v10h97.29A95.64,95.64,0,0,1,288,120.1c-3.73,10.07-7.56,18.92-7.56,18.92s-45.69-16-69.79-16-53.34,9.66-56.18,37.7S168.08,204,191.28,209.6s44.61-.06,63.27-9.18,36.95-29.86,36.95-29.86l96.7,47s6.08-9.2,10.47-17.73a195,195,0,0,0,8-18.27l-101.14-34s6.18-9.26,12.78-27.43,7.56-28.16,7.56-28.16l-52.15-.43V73.72l63.15-.43V60.68H273.68V32Zm0,0"/></g></g></svg>