<svg xmlns="http://www.w3.org/2000/svg" viewBox="0 0 816.07 815.5"><defs><style>.cls-1{fill:#19a0e5;}</style></defs><title>资源 1</title><g id="图层_2" data-name="图层 2"><g id="图层_1-2" data-name="图层 1"><path class="cls-1" d="M152,552.31c0-55.6,40.78-85.25,70.43-89,89-14.83,211.29,59.3,211.29,59.3-55.6,70.43-133.45,107.5-192.75,107.5-51.89-3.7-89-33.35-89-77.84ZM782.14,582C771,578.25,519,500.41,526.37,493c37.07-44.48,63-148.27,63-148.27V322.48H441.11v-55.6H622.75V233.53H441.11V152H367v77.85H203.88v33.36H367v55.6H237.24V341H504.13c0,11.12-18.53,85.25-37.07,118.62-3.7-7.41-122.32-48.19-189-51.89-70.43,3.71-126,25.95-152,77.84C89,582,148.27,678.34,281.72,678.34,304,678.34,411.45,667.22,493,556c22.24,11.12,148.27,74.14,226.12,114.91-74.14,89-185.34,144.57-311.37,144.57A408.24,408.24,0,1,1,815.5,407.75c3.71,66.72-11.12,122.32-33.36,174.21Zm0,0"/></g></g></svg>