<?xml version="1.0" standalone="no"?><!DOCTYPE svg PUBLIC "-//W3C//DTD SVG 1.1//EN" "http://www.w3.org/Graphics/SVG/1.1/DTD/svg11.dtd"><svg t="1507535958849" class="icon" style="" viewBox="0 0 1024 1024" version="1.1" xmlns="http://www.w3.org/2000/svg" p-id="6087" xmlns:xlink="http://www.w3.org/1999/xlink" width="128" height="128"><defs><style type="text/css"></style></defs><path d="M917.691277 406.898267c-8.010441-6.447852-19.732413-5.173836-26.158776 2.89698l-31.895431 39.965224c-1.044796-15.445784-3.089361-31.007201-6.332219-46.606481C813.51359 210.818473 626.370329 87.409792 435.330318 127.452787c-191.060477 40.079834-313.680189 228.437759-273.887904 420.73439 39.792285 192.335517 226.931452 315.744197 417.992953 275.66334 69.445652-14.558577 129.143289-49.270147 175.86438-96.186689 0.172939-0.153496 0.349971-0.308015 0.522909-0.50142 0.831948-0.849344 1.118474-1.814322 1.949398-2.702552 1.370207-2.318812 2.353604-5.058203 2.353604-7.952112 0-8.494465-6.871501-15.407921-15.328104-15.407921-4.555759 0-8.53335 2.084475-11.352559 5.250584l-0.11461-0.075725c-42.417065 42.513256-96.843652 73.868381-159.861918 87.073124-173.007309 36.295648-342.483188-75.489298-378.509706-249.63657-36.045961-174.148295 75.006298-344.743672 248.016677-381.041366 173.006286-36.257785 342.484212 75.529207 378.511753 249.677503 2.778276 13.398148 4.672416 26.720571 5.789866 40.004109l-38.651298-31.238468c-8.032954-6.448876-19.732413-5.173836-26.158776 2.895957-6.451946 8.070816-5.155417 19.847024 2.857071 26.333762 0.037862 0.038886 0.037862 0.038886 0.076748 0.038886l71.223135 57.574277c0.020466 0 0.058328 0.037862 0.074701 0.037862 4.058432 3.281743 9.075703 4.556783 13.862729 3.977591 4.825912-0.50142 9.444093-2.778276 12.70537-6.872524 0.020466-0.037862 0.038886-0.077771 0.038886-0.077771l57.186444-71.742974c0.020466 0 0.020466 0 0.056282-0.038886C926.978804 425.163259 925.703765 413.387052 917.691277 406.898267zM626.428657 494.591515l0-0.154519c8.881274 0 16.101723-7.221472 16.101723-16.140609 0-8.919137-7.221472-16.140609-16.101723-16.140609l-97.016591 0 0-29.693276 96.167247-94.332459-0.096191-0.115634c6.661723-5.907547 7.259334-16.101723 1.351787-22.782889-5.928013-6.680143-16.122189-7.259334-22.783913-1.350764l-90.452081 89.158622-95.14394-93.444229c-6.680143-5.909593-16.875343-5.290493-22.783913 1.38965-5.9055 6.642281-5.307889 16.836457 1.351787 22.744004l-0.096191 0.116657 100.048647 97.847515 0 30.464849-97.017614 0 0 0.078795c-8.880251 0-16.101723 7.220449-16.101723 16.140609 0 8.919137 7.222495 16.140609 16.101723 16.140609l0 0.077771 97.017614 0 0 49.849338-97.017614 0 0 0.075725c-8.880251 0-16.121166 7.259334-16.121166 16.140609 0 8.92016 7.238868 16.138562 16.121166 16.138562l0 0.077771 97.017614 0 0 95.800903 0.076748 0c0 8.880251 7.238868 16.102746 16.140609 16.102746 8.899694 0 16.122189-7.223518 16.122189-16.102746l0.095167 0 0-95.800903 96.998171 0 0-0.153496c8.900717 0 16.121166-7.259334 16.121166-16.140609 0-8.918114-7.221472-16.138562-16.121166-16.138562l-96.998171 0 0-49.849338 97.016591 0L626.426611 494.591515z" p-id="6088"></path></svg>