<svg xmlns="http://www.w3.org/2000/svg" viewBox="0 0 717.13 717.18"><title>资源 1</title><g id="图层_2" data-name="图层 2"><g id="图层_1-2" data-name="图层 1"><path d="M359,717.18c-148.09,0-275.47-89.7-330.32-217.39v69.43H0V353.92H28.64c0,186.65,148.19,331.61,330.32,331.61,161.54,0,298.48-114.31,325.6-273.86l28.27,5.55c-29.47,173.37-178.29,300-353.86,300Zm0,0"/><path d="M717.13,353.91h-29C688.17,182,540.49,26.07,359,26.07,198,26.07,61.49,142.54,34.46,301L6.19,296.88C35.59,124.64,184.1,0,359.13,0,506.66,0,633.63,90.52,688.48,218.87V139.43h28.65Zm0,0"/><path d="M439.48,544.2q-21.08,0-74.41-.86-40.43-.86-65.81-7.74-24.52-7.74-44.3-31.4-8.18-10.75-15.92-10.75-15.48,0-51.18,59.36l-23.23-21.08q34.41-54.19,60.64-65.8V335.16H164.21V306.77h89.9v161.3a97.61,97.61,0,0,1,9.89,9.46q15.48,18.49,32.26,27.1,19.35,9,56.34,10.32,44.74.86,82.59.86,21.06,0,65.81-.86,37.85-.86,51.62-1.72l-7.74,31ZM195.17,164.4q44.3,34.83,73.56,67.53L246.36,254.3Q220.55,222,174.1,184.61Zm145,169.9V450.86a873.53,873.53,0,0,0,86-20.22l6.88,28q-50.76,14.19-127.75,27.09l-6.88-26.24Q310,455.59,310,446.56V173.86H516.48V334.29Zm146.24-92.91v-40H340.13v40ZM340.13,267.2v39.57H486.37V267.2Zm57.64,82.15q38.71,22.8,65.81,42.15,26.23-23.23,43.44-44.3l22.37,17.63q-22.79,26.23-43,43.44,35.26,27.53,59.78,52l-19.35,22.8Q470,423.34,380.13,370.42Zm0,0"/></g></g></svg>