<?xml version="1.0" standalone="no"?><!DOCTYPE svg PUBLIC "-//W3C//DTD SVG 1.1//EN" "http://www.w3.org/Graphics/SVG/1.1/DTD/svg11.dtd"><svg t="1508488920615" class="icon" style="" viewBox="0 0 1024 1024" version="1.1" xmlns="http://www.w3.org/2000/svg" p-id="13192" xmlns:xlink="http://www.w3.org/1999/xlink" width="128" height="128"><defs><style type="text/css"></style></defs><path d="M512 0C229.19168 0 0 229.23264 0 511.97952 0 794.76736 229.23264 1024 512 1024s512-229.23264 512-512.02048C1024 229.23264 794.76736 0 512 0L512 0zM516.48512 849.28512c-78.92992 0-155.09504-28.54912-214.528-80.40448-9.48224-8.25344-10.46528-22.71232-2.21184-32.1536 8.2944-9.46176 22.67136-10.4448 32.1536-2.17088 51.11808 44.60544 116.67456 69.2224 184.58624 69.2224 154.9312 0 280.90368-126.07488 280.90368-280.9856s-125.952-280.94464-280.90368-280.94464c-154.86976 0-280.92416 126.01344-280.92416 280.92416 0 7.61856 0.32768 15.29856 0.94208 22.95808l17.85856-6.43072c8.35584-3.01056 17.67424-0.4096 23.49056 6.5536 4.77184 5.7344 6.8608 13.63968 5.50912 21.11488l-17.75616 85.31968c-1.96608 11.18208-9.56416 18.5344-19.23072 18.5344-4.79232 0-9.60512-1.90464-13.9264-5.55008l-68.4032-55.74656c-7.08608-6.00064-10.46528-14.88896-8.92928-23.40864 1.29024-7.41376 6.43072-13.33248 13.6192-15.95392l23.552-8.4992c-1.536-12.9024-2.29376-25.98912-2.29376-38.93248 0-180.03968 146.47296-326.49216 326.47168-326.49216s326.49216 146.45248 326.49216 326.49216C842.97728 702.73024 696.5248 849.28512 516.48512 849.28512L516.48512 849.28512zM419.5328 538.80832c-13.14816 0-19.72224-6.5536-19.72224-19.72224 0-7.20896 1.57696-12.24704 4.68992-15.03232 3.11296-2.7648 7.80288-4.21888 14.06976-4.21888l57.71264 0-71.51616-119.82848c-2.9696-5.28384-4.44416-10.36288-4.44416-15.31904 0-4.9152 2.12992-8.88832 6.41024-11.83744 4.28032-3.2768 9.27744-4.93568 15.03232-4.93568s10.93632 3.95264 15.54432 11.85792l80.40448 135.63904 80.46592-135.63904c4.87424-8.23296 9.89184-12.34944 14.99136-12.34944 5.12 0 10.11712 1.6384 15.0528 4.89472 5.24288 3.31776 7.90528 7.20896 7.90528 11.59168 0 4.44416-1.8432 9.78944-5.4272 16.03584l-71.5776 119.84896 57.2416 0c13.16864 0 19.74272 6.59456 19.74272 19.74272 0 12.82048-6.59456 19.23072-19.74272 19.23072l-78.4384 0 0 31.08864 78.4384 0c13.16864 0 19.74272 6.57408 19.74272 19.74272 0 12.84096-6.59456 19.21024-19.74272 19.21024l-78.4384 0 0 65.16736c0 8.88832-1.35168 15.09376-3.95264 18.75968-2.64192 3.584-8.06912 5.4272-16.2816 5.4272-8.23296 0-13.76256-1.8432-16.56832-5.4272-2.78528-3.66592-4.17792-9.87136-4.17792-18.75968l0-65.16736-77.43488 0c-13.14816 0-19.72224-6.53312-19.72224-19.70176 0-7.18848 1.57696-12.24704 4.68992-15.07328 3.11296-2.7648 7.80288-4.15744 14.06976-4.15744l78.4384 0 0-31.08864L419.5328 538.80832 419.5328 538.80832 419.5328 538.80832z" p-id="13193"></path></svg>