<?xml version="1.0" standalone="no"?><!DOCTYPE svg PUBLIC "-//W3C//DTD SVG 1.1//EN" "http://www.w3.org/Graphics/SVG/1.1/DTD/svg11.dtd"><svg t="1508477328594" class="icon" style="" viewBox="0 0 1024 1024" version="1.1" xmlns="http://www.w3.org/2000/svg" p-id="12832" xmlns:xlink="http://www.w3.org/1999/xlink" width="200" height="200"><defs><style type="text/css"></style></defs><path d="M399.008 422.016l-318.016 0q-4.992 0-9.504-2.496t-7.008-6.496-2.496-10.016q0-7.008 5.504-12.512t13.504-5.504l318.016 0q3.008 0 6.496 0.992t6.496 4 4.512 6.496 1.504 6.496q-4 16.992-19.008 19.008zM943.008 422.016l-318.016 0q-7.008 0-12.992-5.504t-6.016-12.992 6.016-12.992 12.992-5.504l318.016 0q8 0 13.504 5.504t5.504 12.512q-4 16.992-19.008 19.008zM399.008 646.016q-11.008 0-16.992-10.016-4-7.008-2.016-14.496t8.992-11.488l112.992-66.016q4.992-2.016 10.016-2.016t9.504 2.496 6.496 6.496q4 7.008 2.016 14.496t-8 11.488l-114.016 66.016q-2.016 0.992-4.512 2.016t-4.512 0.992zM624.992 646.016q-0.992 0-3.008-0.512t-3.488-0.992-2.496-1.504l-114.016-66.016q-6.016-4-8-11.488t2.016-14.496q2.016-4 6.496-6.496t9.504-2.496 10.016 2.016l112.992 66.016q3.008 2.016 4.992 4.512t3.008 4.992 0.992 5.504-0.512 6.016-1.504 4.992q-3.008 4.992-7.488 7.488t-9.504 2.496zM399.008 646.016q-8 0-13.504-5.504t-5.504-13.504l0-498.016q0-3.008 0.512-5.504t2.016-4.512 3.008-3.488 3.488-3.008 4.512-2.016 5.504-0.512q4.992 0 8.992 2.496t7.008 7.008 3.008 9.504l0 498.016q0 4-1.504 7.488t-4.512 6.016-6.496 4-6.496 1.504zM624.992 646.016q-3.008 0-6.496-1.504t-6.496-4-4.512-6.016-1.504-7.488l0-498.016q0-8 6.016-13.504t12.992-5.504q3.008 0 6.016 0.992t5.504 2.496 4 4 2.496 5.504 0.992 6.016l0 498.016q0 4.992-2.496 9.504t-7.008 7.008-9.504 2.496zM816 914.016l-608 0q-60 0-103.008-42.496t-43.008-101.504l0-516q0-39.008 19.488-72t53.504-52.512 72.992-19.488l608 0q60 0 103.008 42.496t43.008 101.504l0 516q0 59.008-43.008 101.504t-103.008 42.496zM208 148q-44 0-76 31.008t-32 75.008l0 516q0 44 32 75.008t76 31.008l608 0q44 0 76-31.008t32-75.008l0-516q0-16.992-5.504-32.992t-15.488-29.504-23.488-23.008-30.016-15.008-33.504-5.504l-608 0z" p-id="12833"></path></svg>