<?xml version="1.0" standalone="no"?><!DOCTYPE svg PUBLIC "-//W3C//DTD SVG 1.1//EN" "http://www.w3.org/Graphics/SVG/1.1/DTD/svg11.dtd"><svg t="1508477616958" class="icon" style="" viewBox="0 0 1024 1024" version="1.1" xmlns="http://www.w3.org/2000/svg" p-id="15225" xmlns:xlink="http://www.w3.org/1999/xlink" width="200" height="200"><defs><style type="text/css"></style></defs><path d="M925.392593 377.362963l0-132.740741c0-60.681481-49.303704-109.985185-109.985185-109.985185L191.525926 134.637037c-60.681481 0-109.985185 49.303704-109.985185 109.985185l0 525.274074c0 60.681481 49.303704 109.985185 109.985185 109.985185L815.407407 879.881481c60.681481 0 109.985185-49.303704 109.985185-109.985185l0-146.014815c37.925926-5.688889 64.474074-37.925926 64.474074-77.748148L989.866667 455.111111C989.866667 417.185185 961.422222 384.948148 925.392593 377.362963zM815.407407 841.955556 191.525926 841.955556c-39.822222 0-72.059259-32.237037-72.059259-72.059259L119.466667 244.622222c0-39.822222 32.237037-72.059259 72.059259-72.059259L815.407407 172.562963c39.822222 0 72.059259 32.237037 72.059259 72.059259l0 130.844444L648.533333 375.466667c-43.614815 0-79.644444 36.02963-79.644444 79.644444l0 89.125926c0 43.614815 36.02963 79.644444 79.644444 79.644444l238.933333 0 0 146.014815C887.466667 809.718519 855.22963 841.955556 815.407407 841.955556zM951.940741 544.237037c0 22.755556-18.962963 41.718519-41.718519 41.718519L648.533333 585.955556c-22.755556 0-41.718519-18.962963-41.718519-41.718519L606.814815 455.111111c0-22.755556 18.962963-41.718519 41.718519-41.718519L910.222222 413.392593c22.755556 0 41.718519 18.962963 41.718519 41.718519L951.940741 544.237037z" p-id="15226"></path><path d="M695.940741 500.622222m-36.02963 0a1.9 1.9 0 1 0 72.059259 0 1.9 1.9 0 1 0-72.059259 0Z" p-id="15227"></path></svg>