<?xml version="1.0" standalone="no"?><!DOCTYPE svg PUBLIC "-//W3C//DTD SVG 1.1//EN" "http://www.w3.org/Graphics/SVG/1.1/DTD/svg11.dtd"><svg t="1508477848100" class="icon" style="" viewBox="0 0 1024 1024" version="1.1" xmlns="http://www.w3.org/2000/svg" p-id="16990" xmlns:xlink="http://www.w3.org/1999/xlink" width="200" height="200"><defs><style type="text/css"></style></defs><path d="M836.42368 456.25344c-13.312 0-23.36768 10.56768-23.36768 24.55552l0 344.22784c0 35.79904-27.8528 64.94208-62.09536 64.94208L210.71872 889.97888c-17.2032 0-36.74112-7.45472-51.03616-19.51744-15.79008-12.75904-24.82176-29.45024-24.82176-45.81376L134.8608 282.37824c0-16.77312 9.15456-34.89792 25.14944-49.74592 15.36-14.58176 34.48832-23.28576 51.13856-23.28576l291.18464 0c13.98784 0 24.55552-10.0352 24.55552-23.3472 0-13.08672-10.56768-22.95808-24.55552-22.95808L211.12832 163.04128c-68.5056 0-122.1632 52.4288-122.1632 119.33696l0 542.26944c0 32.23552 12.6976 61.07136 35.71712 81.16224 21.74976 19.64032 52.44928 30.45376 86.44608 30.45376l540.63104 0c32.82944 0 60.416-10.48576 79.83104-30.3104 18.944-19.78368 28.95872-47.90272 28.95872-81.32608L859.7504 480.82944C859.7504 466.82112 849.7152 456.25344 836.42368 456.25344zM913.34656 197.77536l-88.24832-88.63744c-13.16864-13.6192-32.64512-21.4016-53.47328-21.4016-19.7632 0-39.19872 7.59808-53.73952 21.25824l-71.29088 84.64384L263.8848 560.14848l-1.3312 1.26976-25.21088 219.136 10.6496 9.35936 213.07392-28.8768 366.44864-384.36864 85.87264-69.632C942.46912 277.504 942.42816 226.42688 913.34656 197.77536zM325.69344 578.84672l345.4976-344.30976 116.89984 116.89984L444.37504 697.91744 325.69344 578.84672zM295.15776 732.42624l6.656-109.13792 100.72064 100.74112L295.15776 732.42624zM887.27552 250.79808c0 7.45472-2.82624 14.35648-7.92576 19.47648l-52.26496 52.24448-126.83264-127.20128 51.87584-52.24448c10.24-10.24 28.69248-10.24 38.93248 0l88.28928 88.28928C884.46976 236.42112 887.27552 243.34336 887.27552 250.79808z" fill="#272636" p-id="16991"></path></svg>