<svg xmlns="http://www.w3.org/2000/svg" viewBox="0 0 200 200"><defs><style>.cls-1{fill:none;}.cls-2{fill:#4d4d4d;}</style></defs><title>资源 3</title><g id="图层_2" data-name="图层 2"><g id="图层_1-2" data-name="图层 1"><rect class="cls-1" width="200" height="200"/><path class="cls-2" d="M174.25,173.49H29.55a16.1,16.1,0,0,1-16.08-16.07V121.24h4a20.1,20.1,0,1,0,0-40.2h-4V44.88A16.11,16.11,0,0,1,29.55,28.79H174.26a16.11,16.11,0,0,1,16.07,16.08V81.05h-4a20.1,20.1,0,1,0,0,40.2h4v36.17a16.11,16.11,0,0,1-16.08,16.06ZM21.51,129v28.42a8.05,8.05,0,0,0,8,8H174.26a8.05,8.05,0,0,0,8-8V129a28.14,28.14,0,0,1,0-55.7V44.88a8.05,8.05,0,0,0-8-8H29.55a8.05,8.05,0,0,0-8,8V73.3a28.14,28.14,0,0,1,0,55.7Z"/><path class="cls-2" d="M120,135.31a10.06,10.06,0,0,1-4.68-1.17l-12.51-6.58a2,2,0,0,0-1.85,0l-12.52,6.59a10.15,10.15,0,0,1-12.36-2.44,10,10,0,0,1-2.21-8.14l2.39-13.94a2.05,2.05,0,0,0-.57-1.78L65.58,98a10,10,0,0,1,5.55-17.11l14-2a2.05,2.05,0,0,0,1.51-1.1L92.9,65.06a10,10,0,0,1,18,0l6.26,12.69a2,2,0,0,0,1.51,1.1l14,2A10,10,0,0,1,138.22,98l-10.13,9.87a2,2,0,0,0-.58,1.78l2.39,13.93a9.93,9.93,0,0,1-2.18,8.15,10.09,10.09,0,0,1-7.7,3.59Zm-18.11-16a10.13,10.13,0,0,1,4.67,1.15L119.1,127a2,2,0,0,0,2.47-.5,1.88,1.88,0,0,0,.42-1.61L119.58,111a10,10,0,0,1,2.9-8.88l10.12-9.87a1.92,1.92,0,0,0,.51-2,1.94,1.94,0,0,0-1.61-1.36l-14-2A10,10,0,0,1,110,81.31l-6.27-12.69a2,2,0,0,0-3.59,0L93.85,81.31a10.05,10.05,0,0,1-7.55,5.48l-14,2a2,2,0,0,0-1.1,3.4l10.13,9.87A10,10,0,0,1,84.19,111l-2.38,13.94a1.88,1.88,0,0,0,.42,1.61,2,2,0,0,0,2.48.5l12.52-6.6a10.06,10.06,0,0,1,4.67-1.15ZM53.67,52.91a4,4,0,0,1-4-4h0V36.84a4,4,0,0,1,8,0V48.89a4,4,0,0,1-4,4Zm0,116.56a4,4,0,0,1-4-4s0,0,0,0V153.4a4,4,0,1,1,8,0v12.06a4,4,0,0,1-4,4Z"/></g></g></svg>