<svg xmlns="http://www.w3.org/2000/svg" viewBox="0 0 214.87 214.87"><defs><style>.cls-1{fill:none;}</style></defs><title>shouhuo</title><g id="图层_2" data-name="图层 2"><g id="图层_1-2" data-name="图层 1"><rect class="cls-1" width="214.87" height="214.87"/><path d="M186.89,71.71,176,36c-1.43-4.72-6-8.28-10.66-8.28H49.48c-4.64,0-9.22,3.56-10.65,8.28L28,71.71a31.49,31.49,0,0,0-.7,6.51v97.6a11,11,0,0,0,11,11H176.57a11,11,0,0,0,11-11V78.23A31.57,31.57,0,0,0,186.89,71.71ZM46.54,38.33a3.79,3.79,0,0,1,2.95-2.56H165.37a3.79,3.79,0,0,1,3,2.56L179,73.43H35.87Zm133,137.5a3,3,0,0,1-3,3H38.29a3,3,0,0,1-3-3V81.48H179.53Z"/><path d="M50.26,125.9h56.06a4,4,0,0,0,0-8.05H50.26a4,4,0,1,0,0,8.05Z"/><path d="M89,139.17H50.81a4,4,0,1,0,0,8.05H89a4,4,0,1,0,0-8.05Z"/><path d="M133.83,146A4,4,0,0,0,137,147.2h.29a4,4,0,0,0,2.84-1.17l30.82-30.82a4,4,0,0,0,0-5.7,4.12,4.12,0,0,0-5.69,0L137,137.78l-12.39-12.39a4.12,4.12,0,0,0-5.69,0,4,4,0,0,0,0,5.69Z"/></g></g></svg>