<svg xmlns="http://www.w3.org/2000/svg" viewBox="0 0 200 200"><defs><style>.cls-1{fill:none;}</style></defs><title>yishouhuo</title><g id="图层_2" data-name="图层 2"><g id="图层_1-2" data-name="图层 1"><path d="M182.19,95.59c.76-43.48-33.7-79.36-77-80.11s-79,33.89-79.74,77.38A78.79,78.79,0,0,0,62.26,161a4.25,4.25,0,0,0,4.53-7.19A70.29,70.29,0,0,1,34,93c.68-38.8,32.51-69.71,71.09-69s69.32,32.67,68.64,71.47A70.29,70.29,0,0,1,140,154.35a4.25,4.25,0,0,0-1.42,5.83h0a4.25,4.25,0,0,0,5.84,1.42h0A78.78,78.78,0,0,0,182.19,95.59Zm-79.58,88.11a4.25,4.25,0,0,0,5.31-.17l14.87-12.74a4.25,4.25,0,0,0-5.53-6.45L102.4,177.07l5.31-.17-17-12.74a4.25,4.25,0,0,0-5.1,6.8l17,12.74Zm6.31-97.57h29.85a4.25,4.25,0,0,0,0-8.5H115.25l14.14-16.92a4.25,4.25,0,0,0-.54-6h0a4.25,4.25,0,0,0-6,.54h0L104.18,77.63h1.73L87.21,55.26a4.25,4.25,0,0,0-6.52,5.45L94.83,77.63H71.3a4.25,4.25,0,0,0,0,8.5h29.13V106.3H71.3a4.25,4.25,0,0,0,0,8.5h29.13V137.9a4.25,4.25,0,0,0,8.5,0V114.8h29.85a4.25,4.25,0,1,0,0-8.5H108.92Z"/><rect class="cls-1" width="200" height="200"/></g></g></svg>