<svg xmlns="http://www.w3.org/2000/svg" viewBox="0 0 200 200"><defs><style>.cls-1{fill:none;}.cls-2{fill:#707070;}</style></defs><title>add-add</title><g id="图层_2" data-name="图层 2"><g id="图层_1-2" data-name="图层 1"><rect class="cls-1" width="200" height="200"/><path class="cls-2" d="M99.88,1.45a98.62,98.62,0,1,0,98.62,98.62A98.73,98.73,0,0,0,99.88,1.45Zm0,186.84a88.22,88.22,0,1,1,88.22-88.22,88.32,88.32,0,0,1-88.22,88.22ZM137.08,93H106.9V62.87c0-2.87-4.06-5.2-6.93-5.2S93,60,93,62.87V93H62.68c-2.87,0-5.2,4.06-5.2,6.93s2.33,6.93,5.2,6.93H93v30.43c0,2.87,4.06,5.2,6.93,5.2s6.93-2.33,6.93-5.2V106.84h30.18c2.87,0,5.2-4.06,5.2-6.93S140,93,137.08,93Z"/></g></g></svg>