<?xml version="1.0" encoding="utf-8"?>
<!-- Generator: Adobe Illustrator 21.0.0, SVG Export Plug-In . SVG Version: 6.00 Build 0)  -->
<svg version="1.1" id="图层_1" xmlns="http://www.w3.org/2000/svg" xmlns:xlink="http://www.w3.org/1999/xlink" x="0px" y="0px"
	 viewBox="0 0 200 200" style="enable-background:new 0 0 200 200;" xml:space="preserve">
<path d="M126.5,95.9c2.4-2.4,6.4-2.4,8.8,0l0,0c2.4,2.4,2.4,6.4,0,8.8l-61.9,61.9c-2.4,2.4-6.4,2.4-8.8,0l0,0
	c-2.4-2.4-2.4-6.4,0-8.8L126.5,95.9z"/>
<path d="M64.6,42.2c-2.4-2.4-2.4-6.4,0-8.8l0,0c2.4-2.4,6.4-2.4,8.8,0l61.9,61.9c2.4,2.4,2.4,6.4,0,8.8l0,0c-2.4,2.4-6.4,2.4-8.8,0
	C126.5,104.1,64.6,42.2,64.6,42.2z"/>
</svg>
