<svg xmlns="http://www.w3.org/2000/svg" viewBox="0 0 200 200"><defs><style>.cls-1{fill:none;}</style></defs><title>jian</title><g id="图层_2" data-name="图层 2"><g id="图层_1-2" data-name="图层 1"><rect class="cls-1" width="200" height="200"/><path d="M100,1.5A98.5,98.5,0,1,0,198.5,100,98.5,98.5,0,0,0,100,1.5Zm-.21,187.23c-48.78-.11-88.36-40.14-88.19-89,.17-48.48,39.92-88.13,88.59-88.11S188.78,51.37,188.74,100a88.56,88.56,0,0,1-89,88.69Z"/><path d="M55.87,106.42h88.6A6.48,6.48,0,0,0,151,99.94h0a6.48,6.48,0,0,0-6.48-6.48H55.87a6.48,6.48,0,0,0-6.48,6.48h0A6.48,6.48,0,0,0,55.87,106.42Z"/></g></g></svg>