<svg xmlns="http://www.w3.org/2000/svg" xmlns:xlink="http://www.w3.org/1999/xlink" viewBox="0 0 667.97 695.27"><defs><style>.cls-1{fill:none;}.cls-2{clip-path:url(#clip-path);}</style><clipPath id="clip-path" transform="translate(0 -0.73)"><rect class="cls-1" x="0.12" width="667.88" height="696.96"/></clipPath></defs><title>资源 1</title><g id="图层_2" data-name="图层 2"><g id="图层_1-2" data-name="图层 1"><g class="cls-2"><path d="M411.7,160.37c-16.8,0-31.51,14.7-31.51,31.51V572.07c0,16.81,14.7,31.51,31.51,31.51s31.51-14.7,31.51-31.51V191.88c0-18.91-12.6-31.51-31.51-31.51Zm-157.54,0c-16.8,0-31.5,14.7-31.5,31.51V572.07c0,16.81,14.7,31.51,31.5,31.51s31.51-14.7,31.51-31.51V191.88c0-18.91-12.6-31.51-31.51-31.51ZM632.25,65.85H380.19V32.24c0-16.8-14.7-31.51-31.51-31.51-6.3,0-10.5,2.1-14.7,4.2-4.2-2.1-10.5-2.1-16.8-2.1-16.8,0-31.51,14.7-31.51,31.51v33.6L105,65.85H31.51C14.7,65.85,0,80.55,0,97.35s14.7,31.51,31.51,31.51H65.12V633c0,35.71,27.31,63,63,63h409.6c35.71,0,63-27.31,63-63V191.88c0-16.8-14.7-31.51-31.51-31.51s-31.51,14.7-31.51,31.51V572.07c0,50.41-12.6,60.91-63,60.91H193.25c-50.41,0-63-10.5-63-63V128.86H636.46c16.8,0,31.51-14.71,31.51-31.51-4.2-16.8-18.91-31.51-35.71-31.51ZM537.73,580.47v0Zm0,0" transform="translate(0 -0.73)"/></g></g></g></svg>