<svg xmlns="http://www.w3.org/2000/svg" viewBox="0 0 717.29 717.29"><title>资源 1</title><g id="图层_2" data-name="图层 2"><g id="图层_1-2" data-name="图层 1"><path d="M358.65,717.29C160.58,717.29,0,556.71,0,358.65S160.58,0,358.65,0,717.29,160.58,717.29,358.65,556.72,717.29,358.65,717.29Zm0-683.26C179.36,34,34,179.36,34,358.65S179.36,683.27,358.65,683.27,683.27,537.93,683.27,358.65,537.93,34,358.65,34Zm0,0"/><path d="M337.09,216.41A11,11,0,0,0,326,205.58c-37.72,0-69.7-22.69-85.09-33.6-3.54-2.51-6.32-4.46-8.23-5.56a11.28,11.28,0,0,0-15.24,3.79A10.66,10.66,0,0,0,221.27,185c1.49.89,3.7,2.45,6.5,4.46C245,201.75,281,227.25,326,227.25a11,11,0,0,0,11.13-10.85Zm0,0"/><path d="M478,166.4c-1.89,1.11-4.7,3.06-8.26,5.57-15.35,10.9-47.33,33.59-85,33.59a10.84,10.84,0,1,0,0,21.66c45,0,80.91-25.5,98.17-37.75,2.81-2,5-3.6,6.52-4.47a10.67,10.67,0,0,0,3.87-14.84A11.29,11.29,0,0,0,478,166.4Zm0,0"/><path d="M434.74,445.13,364.87,411.8a9.85,9.85,0,0,0-8.95.22l-61.79,33.34a11.38,11.38,0,0,0-4.57,14.85,10.14,10.14,0,0,0,14,4.86l57.37-31,65.32,31.18a9.85,9.85,0,0,0,4.26,1,10.35,10.35,0,0,0,9.47-6.51,11.32,11.32,0,0,0-5.19-14.62Zm0,0"/><path d="M257,254.5H84.66c-7.5,0-13.59,7.27-13.59,16.24S77.15,287,84.66,287h33.72c14,32.72,3.12,67,3.12,67-23.67,62.36,0,102.78,0,102.78,13.86,33.49,3.46,73.33,3.46,73.33,53.12-10.39,92.38,11,92.38,11,26.56-31.75,3.47-80.84,3.47-80.84-15.59-39.26,0-82.57,0-82.57,13.79-33.74,11.61-69.07,8.09-90.67H257c7.51,0,13.59-7.27,13.59-16.25S264.55,254.5,257,254.5ZM211.21,369.19l-1.08,2.95c-7.27,20.21-16.31,45.36,3.78,97.33,12.29,31.72,4.72,49.78-.44,57.47,0,0,0,0,0,0-.9-.36-1.77-.68-2.65-1a157,157,0,0,0-34.21-8.78l-2.81-.37a137.53,137.53,0,0,0-14.81-.92c-1.07,0-2.11.06-3.18.1-4,.1-7.81.38-11.47.84-1,.12-2,.2-2.93.34-.78.12-1.49.32-2.25.44,3.46-16.49,4.6-40.12-5-57.17-15-26.59-14.34-71.65-.2-112.49,5.39-15.61.23-42.38-4.62-60.9h88.44c3.46,16,6.41,45.84-6.5,82.21Zm0,0"/><path d="M633.26,254.5H460.87c-7.51,0-13.59,7.27-13.59,16.24S453.36,287,460.87,287h30.21c-3.52,21.6-5.69,56.93,8.1,90.67,0,0,15.58,43.3,0,82.57,0,0-23.09,49.08,3.47,80.84,0,0,39.26-21.36,92.38-11,0,0-10.39-39.84,3.47-73.33,0,0,23.68-40.42,0-102.78,0,0-10.9-34.27,3.12-67h31.65c7.5,0,13.59-7.27,13.59-16.25s-6.09-16.24-13.59-16.24ZM586.1,347.89c14.14,40.84,14.84,85.89-.2,112.49-9.64,17-8.5,40.68-5,57.17-.76-.12-1.47-.32-2.25-.44-1-.14-2-.21-2.92-.34-3.66-.46-7.51-.74-11.47-.84-1.07,0-2.11-.1-3.18-.1a137.49,137.49,0,0,0-14.81.92l-2.81.38a157,157,0,0,0-34.21,8.78c-.88.34-1.75.66-2.65,1,0,0,0,0,0,0-5.16-7.69-12.72-25.75-.44-57.46,20.09-52,11.05-77.12,3.78-97.33l-1.08-2.95c-12.91-36.37-10-66.21-6.5-82.21h88.44c-4.85,18.52-10,45.29-4.62,60.9Zm0,0"/></g></g></svg>