<?xml version="1.0" standalone="no"?><!DOCTYPE svg PUBLIC "-//W3C//DTD SVG 1.1//EN" "http://www.w3.org/Graphics/SVG/1.1/DTD/svg11.dtd"><svg t="1508476184149" class="icon" style="" viewBox="0 0 1024 1024" version="1.1" xmlns="http://www.w3.org/2000/svg" p-id="53452" xmlns:xlink="http://www.w3.org/1999/xlink" width="128" height="128"><defs><style type="text/css"></style></defs><path d="M512 869.05856c-195.35872 0-277.84704-171.06944-281.2416-178.35008a28.51328 28.51328 0 0 1 13.696-37.94944c14.17216-6.656 31.17056-0.57344 37.90336 13.63968 2.85184 5.95968 71.13728 145.60256 229.63712 145.60256 172.94336 0 226.53952-139.55072 228.7616-145.48992 5.4528-14.75584 21.76-22.29248 36.56704-16.98304a28.50816 28.50816 0 0 1 17.05472 36.4544c-0.68096 1.78688-68.51584 183.07584-282.38336 183.07584z m182.51776-539.5712c40.33024 0 73.05216 32.68096 73.05216 73.00608S734.8736 475.4944 694.51776 475.4944c-40.29952 0-72.99072-32.67584-72.99072-73.00096 0-40.32512 32.6912-73.00608 72.99072-73.00608z m-365.01504 0c40.33024 0 73.02144 32.68096 73.02144 73.00608S369.83808 475.4944 329.50272 475.4944s-73.0112-32.67584-73.0112-73.00096c0-40.32512 32.68096-73.00608 73.0112-73.00608zM512 1023.64672C229.87264 1023.64672 0.34816 794.1376 0.34816 512S229.87776 0.34816 511.99488 0.34816c282.12736 0 511.65184 229.50912 511.65184 511.65184S794.12224 1023.6416 512 1023.6416z m0-966.2208C261.33504 57.42592 57.3952 261.36576 57.3952 512c0 250.624 203.93984 454.56896 454.6048 454.56896 250.69056 0 454.6048-203.93984 454.6048-454.56896 0.03072-250.63424-203.88864-454.57408-454.6048-454.57408z" p-id="53453"></path></svg>