<svg xmlns="http://www.w3.org/2000/svg" xmlns:xlink="http://www.w3.org/1999/xlink" viewBox="0 0 750.8 750.8"><defs><style>.cls-1{fill:none;}.cls-2{clip-path:url(#clip-path);}</style><clipPath id="clip-path" transform="translate(0 -0.16)"><rect class="cls-1" x="0.12" width="750.88" height="751.92"/></clipPath></defs><title>资源 1</title><g id="图层_2" data-name="图层 2"><g id="图层_1-2" data-name="图层 1"><g class="cls-2"><path d="M102.81.57h238.8a33.57,33.57,0,0,1,34,34,33.57,33.57,0,0,1-34,34H102.81a33.58,33.58,0,0,0-34,34v546a33.58,33.58,0,0,0,34,34h546a33.58,33.58,0,0,0,34-34V409.77a34,34,0,1,1,68,0v238.8c0,28.26-9.83,52.42-29.9,72.5S676.66,751,648.4,751h-546c-28.26,0-52.43-9.83-72.5-29.9S0,676.82,0,648.56V103c0-28.26,9.83-52.43,29.9-72.5S74.55.57,102.81.57Zm580.4,116.74-283,283A33.06,33.06,0,0,1,376,410.17q-14.74,0-24.57-9.83t-9.83-24.58a33.06,33.06,0,0,1,9.83-24.16l283-283L701.65.16H716.8a33.58,33.58,0,0,1,34,34V48.49Zm0,0" transform="translate(0 -0.16)"/></g></g></g></svg>