<svg xmlns="http://www.w3.org/2000/svg" viewBox="0 0 51.66 51.66"><defs><style>.cls-1{fill:#fff;fill-rule:evenodd;}</style></defs><title>资源 3</title><g id="图层_2" data-name="图层 2"><g id="图层_1-2" data-name="图层 1"><path class="cls-1" d="M25.83,0A25.84,25.84,0,1,1,7.57,7.57,25.75,25.75,0,0,1,25.83,0ZM13.34,8.3c-1.54.94-2.37,2.38-1.86,3.21s2.17.73,3.7-.21S17.55,8.91,17,8.09s-2.17-.73-3.7.22Zm18.2,35c6.81-.49,7.74-1.27,12.93-5.78a48.18,48.18,0,0,1-12.93,5.78ZM6,35.29a20.05,20.05,0,0,0,3.36,5.48l.89-1.36A25,25,0,0,1,6,35.29Zm5.86,5.28-1.1,1.69q.64.62,1.32,1.19l1.27-1.94q-.76-.45-1.48-.93Zm3.23,1.89-1.43,2.19c7.84,5.45,19,6.06,25.61-2-7.94,4.47-17,3.36-24.18-.24ZM21.7,11.67c-1.73.5-2.92,1.66-2.65,2.59s1.89,1.28,3.62.78,2.92-1.66,2.65-2.59-1.89-1.28-3.62-.78Zm3.91-6.93c-1.8.07-3.23.9-3.2,1.87s1.52,1.71,3.33,1.64,3.23-.9,3.2-1.87S27.41,4.68,25.61,4.75Z"/></g></g></svg>