<svg xmlns="http://www.w3.org/2000/svg" viewBox="0 0 78.47 49.71"><defs><style>.cls-1{fill:#fff;fill-rule:evenodd;}</style></defs><title>资源 6</title><g id="图层_2" data-name="图层 2"><g id="图层_1-2" data-name="图层 1"><path class="cls-1" d="M25.69,32.88a172.3,172.3,0,0,1,35.5-2c2.34-.24,4.37-3.08,6.38-6.08,3.3,1.9,4,2.33,4.09,2.43C69.86,57.34,31.46,52.7,24.06,38.2c-1.2-2.48-.77-4.75,1.64-5.32Zm-4.83,2.85c-1.92,3.2-2.81,8.18-3.23,14H14.41a33.12,33.12,0,0,0-3.41-14V32.5a13.22,13.22,0,0,0,9.87-.09v3.32ZM15.49,1.1a15.49,15.49,0,1,0,11,4.54,15.44,15.44,0,0,0-11-4.54ZM10.18,27.94c1.48-.28,2.36-1,2.4-2.43,2.2-.06,4.2-1,4.13-3.27,1.83-.08,3.49-.3,3.26-2.91,1.8-.41,3.19-1.14,2.61-3.44,1.47-.62,2.37-1.66,1.64-3.86,1.25-.07,1.68-1.82.81-3.56q-.33-.38-.68-.74A12.53,12.53,0,0,0,4.43,22.47a2.21,2.21,0,0,0,3.06-3,2.21,2.21,0,1,1-2.89,3.31,12.59,12.59,0,0,0,5.58,5.15Zm5.1-23.31A2.21,2.21,0,1,1,12.1,7.54a2.21,2.21,0,0,0,3.17-2.92ZM9.59,9.53a2.21,2.21,0,1,1-3.18,2.92A2.21,2.21,0,0,0,9.59,9.53Zm4.32,9.85a2.21,2.21,0,1,1-3.18,2.92,2.21,2.21,0,0,0,3.18-2.92Zm5.47-4.27A2.21,2.21,0,1,1,16.2,18a2.21,2.21,0,0,0,3.18-2.92Zm-7.45-.27a2.21,2.21,0,1,1-3.18,2.92,2.21,2.21,0,0,0,3.18-2.92Zm9.86-6.26a2.21,2.21,0,1,1-3.17,2.92,2.21,2.21,0,0,0,3.17-2.92Zm-5.69,1.64a2.21,2.21,0,1,1-3.18,2.92,2.21,2.21,0,0,0,3.18-2.92Zm1.48,13.65a2.21,2.21,0,1,1-3.17,2.92,2.21,2.21,0,0,0,3.17-2.92Zm9.18-9.66a2.21,2.21,0,1,1-3.17,2.92,2.21,2.21,0,0,0,3.17-2.92Zm-3.1,6.28a2.21,2.21,0,1,1-3.18,2.92,2.21,2.21,0,0,0,3.18-2.92ZM13,35.94a47.76,47.76,0,0,1,2.29,12.5V36.25A10.25,10.25,0,0,1,13,35.94Zm55.34-12.4,3.77,2.05,6.28-14.9L78.47,0,68.29,23.54ZM27.57,34.23a2.49,2.49,0,0,0-.73,3.25c2.72,6.24,12.79,10,19.72,9.36v-.55C39.67,46.57,29.63,41.43,27.57,34.23Z"/></g></g></svg>