<svg xmlns="http://www.w3.org/2000/svg" viewBox="0 0 49.81 59.05"><defs><style>.cls-1{fill:#fff;fill-rule:evenodd;}</style></defs><title>资源 4</title><g id="图层_2" data-name="图层 2"><g id="图层_1-2" data-name="图层 1"><path class="cls-1" d="M45.09,13.9c6.91,6.94,6.14,18.9-1.7,26.71C38,45.94,30.77,48,24.5,46.51a7.69,7.69,0,0,1-2.68-1h0l.14-.11.12-.13a5,5,0,0,0,0-6.93l-.53-.53-.67-.67A5,5,0,0,0,13.94,37l-.13.12-.11.14-.08.1a9.23,9.23,0,0,1-1.09-2.52c-1.66-6.39.36-13.91,5.86-19.38C26.22,7.67,38.18,7,45.09,13.9ZM25,1.28a4.35,4.35,0,1,0,0,6.16,4.36,4.36,0,0,0,0-6.16ZM19.07,38.89a2.46,2.46,0,0,0-3.41,0C11,44.62,7.07,45.74.71,52a2.42,2.42,0,0,0,0,3.41l1.37,1.38L2.2,57l1.36,1.38a2.42,2.42,0,0,0,3.41,0C13.32,52,14.47,48.12,20.24,43.5a2.45,2.45,0,0,0,0-3.41l-.53-.53h0l-.07-.07-.07-.07h0l-.53-.53Zm3.64-22.34c6.09-4.48,12.52-4.91,19.23-2A14.3,14.3,0,0,0,22.71,16.55Z"/></g></g></svg>