<svg xmlns="http://www.w3.org/2000/svg" viewBox="0 0 57.28 60.42"><defs><style>.cls-1{fill:#fff;fill-rule:evenodd;}</style></defs><title>资源 5</title><g id="图层_2" data-name="图层 2"><g id="图层_1-2" data-name="图层 1"><path class="cls-1" d="M24.74,35.91l.3,0-.42-3.47-1.82-.19a12,12,0,0,0,1.93,3.63ZM3.31,13.2l.09.11A5.12,5.12,0,0,0,6.2,15a5.72,5.72,0,0,0,3.09-.18A5.16,5.16,0,0,0,11,13.91a12,12,0,0,0,2.56-3.74c1-1.94,1.92-3.73,3.68-4.23q-.26-.31-.54-.6A8,8,0,0,0,3.31,13.2ZM18.12,7.36A8,8,0,0,1,5.34,16.65c-.15-.15-.29-.3-.43-.46a6.91,6.91,0,0,0,1,.29,7.21,7.21,0,0,0,3.9-.22,6.68,6.68,0,0,0,2.15-1.21,13.08,13.08,0,0,0,2.92-4.2c.89-1.73,1.7-3.31,3.28-3.49ZM11,0A11,11,0,1,1,3.22,3.22,11,11,0,0,1,11,0Zm6.25,43.93a17.08,17.08,0,0,0,3-5.87,20,20,0,0,0,.59-2.72,14.68,14.68,0,0,0,6.71,6.6,20.38,20.38,0,0,0-2.72.63A17.12,17.12,0,0,0,19,45.66l-1.76-1.73Zm2.13,3.38a1.36,1.36,0,0,1-.2.28L7.75,60a1.24,1.24,0,0,1-1.77,0L3.23,57.34a1.25,1.25,0,0,1,0-1.77L15.14,44.09a15.83,15.83,0,0,0,3.68-6.46,21.24,21.24,0,0,0,.78-5.7,17.87,17.87,0,0,1-.4-5.83,23,23,0,0,1,6.67-13.86A25.12,25.12,0,0,1,28.35,10l0-.32.34,0A22.34,22.34,0,0,1,39.63,5.36,16,16,0,0,1,52.76,9.61,16,16,0,0,1,57.2,22.67a22.37,22.37,0,0,1-4.29,11.07l0,.15-.14,0a25.16,25.16,0,0,1-2.25,2.63,23,23,0,0,1-13.76,6.88A18,18,0,0,1,31,43.12a21.17,21.17,0,0,0-5.73.87,15.73,15.73,0,0,0-5.9,3.31Zm3-16.58,2,.22L24,27l-1.82-.19a15,15,0,0,0,.26,3.91Zm-.09-5.4,1.47.16-.47-3.91a18.41,18.41,0,0,0-1,3.75ZM24.5,19l.09.77,3.48.37-.46-3.8-1.25-.13A21.11,21.11,0,0,0,24.5,19Zm4.28-5.42L28.95,15l3.94.42-.46-3.76-1-.11a21.56,21.56,0,0,0-2.6,2.05Zm5-3.43,0,.13,4.35.46-.25-2.07a19,19,0,0,0-4.11,1.48Zm5.59-1.75.3,2.5,3.8.4-.36-3a15.39,15.39,0,0,0-3.15,0l-.6.07Zm5.28.15L45,11.48l3.76.4-.22-1.79a12.53,12.53,0,0,0-3.9-1.53Zm5.56,2.75.09.73.74.08-.36-.37-.47-.44Zm2.1,2.45-1.83-.19.46,3.76,3,.32a12.45,12.45,0,0,0-1.63-3.88Zm1.9,5.42-3.09-.33.46,3.8,2.61.28c0-.17,0-.35.06-.52a15.29,15.29,0,0,0,0-3.23Zm-.26,5.23-2.18-.23.53,4.34.26,0a19,19,0,0,0,1.4-4.14Zm-2.84,6.72-.15-1.24-3.76-.4.48,3.93,1.55.16a21.56,21.56,0,0,0,1.88-2.45Zm-3.2,3.82h-.05v0l0,0Zm-1.41,1.23-.17-1.4-3.8-.4.42,3.47,1,.1a21.13,21.13,0,0,0,2.57-1.77Zm-5.08,3-4.17-.44.19,1.58a18.31,18.31,0,0,0,4-1.14Zm-5.46,1.31-.23-1.91-3.94-.42L32,40.27a14.86,14.86,0,0,0,3.91.22Zm-5.47-.62L30.24,38l-3.48-.37,0,.33a12,12,0,0,0,3.67,1.92ZM29.13,16.52l.46,3.8,3.94.42-.46-3.8-3.94-.42Zm5.28-.95,4.35.46-.46-3.76L34,11.82l.46,3.76Zm5.87.62,3.81.4-.46-3.76-3.8-.4.45,3.76Zm5.33.57,3.76.4-.45-3.76L45.17,13l.45,3.76Zm3.95,1.92-3.76-.4.46,3.8,3.76.4-.46-3.8Zm-5.29-.56-3.81-.4.46,3.8,3.81.4-.46-3.8Zm-5.33-.57L34.6,17.1l.46,3.8,4.35.46-.46-3.8ZM24.78,21.31l.53,4.34,3.48.37-.53-4.34-3.48-.37Zm5,.53.53,4.34,3.94.42-.53-4.34-3.94-.42Zm5.47.58.53,4.34,4.35.46-.53-4.34-4.35-.46Zm5.88.62.53,4.34,3.81.4-.53-4.34-3.8-.4Zm5.33.57L47,27.95l3.76.4L50.22,24l-3.76-.4Zm-21,3.57L26,31.1l3.48.37L29,27.54l-3.48-.37Zm5,.53L31,31.64l3.94.42-.48-3.93L30.5,27.7Zm5.46.58.48,3.93,4.35.46-.48-3.93L36,28.28Zm5.88.62.48,3.93,3.81.4-.48-3.93-3.81-.4ZM26.15,32.63l.42,3.47,3.48.37L29.63,33l-3.48-.37Zm5,.53.42,3.47,3.94.42-.42-3.47-3.94-.42Zm5.46.58L37,37.21l4.35.46L41,34.2l-4.35-.46ZM4.78,57.91A1.23,1.23,0,0,1,5,56.42L16.91,44.93a1.19,1.19,0,0,0-1.59,0L4.16,55.68a1.17,1.17,0,0,0,.06,1.67Z"/></g></g></svg>