<svg xmlns="http://www.w3.org/2000/svg" viewBox="0 0 63.06 56.43"><defs><style>.cls-1{fill:#fff;fill-rule:evenodd;}</style></defs><title>资源 7</title><g id="图层_2" data-name="图层 2"><g id="图层_1-2" data-name="图层 1"><path class="cls-1" d="M38.09,41.22l1,.82c.73.56,1.06.38,1.35.14L42.24,41c.36-.32.22-.75-.13-1.24l-.35-.43a24.1,24.1,0,0,1-3.66,1.93ZM29.34.05l14-.05a56.19,56.19,0,0,0,6.59,8.25A.56.56,0,0,1,50.59,8a21.71,21.71,0,0,1,6.9,3.21A12.49,12.49,0,0,1,62,17.81a.61.61,0,0,1-.12.67L52,27.78a48.39,48.39,0,0,1-8,8.81,24.32,24.32,0,0,1-10.23,5.2h0a.72.72,0,0,1-.66-.22,6.8,6.8,0,0,1-1.61-2.24,3.49,3.49,0,0,1,0-2.77h0l0-.07c1.36-2.27,2.72-4.56,3.94-7a44.94,44.94,0,0,0,3.07-7.78.57.57,0,0,1,.81-.33.8.8,0,0,1,.48.74,49.29,49.29,0,0,0,6.29-2.53l1.52,1.79a34.22,34.22,0,0,1-13,12.68c-.62,1.08-1.26,2.15-1.9,3.22A2.23,2.23,0,0,0,32.7,39a39.54,39.54,0,0,0,9.14-6.2A46.87,46.87,0,0,0,48.65,25l0,0,0,0,10.64-10a10.74,10.74,0,0,0-2.53-2.68,18.55,18.55,0,0,0-5.4-2.64c.84,3.21.43,5-1.25,6.14s-4.57,1.36-8.79,1.57L41,21a.55.55,0,0,1-.71.47.79.79,0,0,1-.59-.81l.39-4.1a.53.53,0,0,1,.52-.51c4.28-.22,7.19-.43,8.7-1.42,1.35-.88,1.55-2.54.59-5.66-.13,1.39-.52,4.16-1.43,4.56-.77,1.11-7.54.91-7.54.91,0-4.33-9.16-11-11.63-14.36ZM13.91,22.55a13.91,13.91,0,1,1-9.83,4.07,13.87,13.87,0,0,1,9.83-4.07Zm.2,6.3-2.23-.78-2.23-.78a.38.38,0,0,1-.23-.48l0-.08h0l.84-1.31.25-.38A11.87,11.87,0,0,0,5.5,28a12.07,12.07,0,0,0-1.25,1.47l.37-.12,1.47-.48a.38.38,0,0,1,.47.24.33.33,0,0,1,0,.09h0l.2,2.35L7,33.94a.38.38,0,0,1-.07.25L5.57,36.12,4.22,38.06a.38.38,0,0,1-.52.09l-.09-.08-1-1.13L2,36.29c0,.06,0,.11,0,.17a11.85,11.85,0,0,0,2.56,7.38l0-.89,0-1.55A.38.38,0,0,1,5,41h.09l2.28.62,2.28.62a.38.38,0,0,1,.22.16l1.35,1.92,1.36,1.93a.38.38,0,0,1-.09.52l-.09,0L11,47.43l-.83.33a11.93,11.93,0,0,0,8-.18l-.38-.14-1.46-.52a.38.38,0,0,1-.23-.48l0-.08h0l1.29-2,1.29-2a.38.38,0,0,1,.2-.15h0l2.25-.7,2.25-.7a.38.38,0,0,1,.47.25.36.36,0,0,1,0,.09h0l.1,1.55h0a11.82,11.82,0,0,0,1.8-6.17l-.15.2L24.71,38a.37.37,0,0,1-.53.07L24.12,38h0l-1.48-1.84-1.48-1.84a.38.38,0,0,1-.08-.26l0-2.34,0-2.36a.37.37,0,0,1,.38-.37h.09l1.5.38.46.12A12,12,0,0,0,22.32,28a11.86,11.86,0,0,0-4.24-2.73l0,0L19,26.64a.38.38,0,0,1-.1.52l-.09,0-2.2.82-2.21.82a.38.38,0,0,1-.26,0Zm.22,2.61a.38.38,0,0,0-.45,0l-2.22,1.61L9.45,34.68a.37.37,0,0,0-.14.42l.85,2.61L11,40.3a.38.38,0,0,0,.37.28h5.49a.38.38,0,0,0,.36-.26l.85-2.61.84-2.6a.38.38,0,0,0-.13-.43l-2.22-1.61-2.21-1.61ZM7.84,56.27c-1.91,0-1.94-3.82.17-3.68,21.25,1.47,44.12-6.65,54.06-26.72a.54.54,0,0,1,1,.38c-10.36,20.9-32.12,31.61-55.21,30Zm25.1-16.81-.08-.14.08.14ZM61.61,19.93l-2.55,2.39.87.93a1.11,1.11,0,0,0,1.49.3l1.26-1.18a1.11,1.11,0,0,0-.2-1.51l-.87-.93Zm-3.16,3-2.55,2.39.87.93a1.11,1.11,0,0,0,1.49.3l1.26-1.18a1.11,1.11,0,0,0-.2-1.51l-.87-.93ZM46.89,35.12q-1.12,1.1-2.3,2.09l-.82.66.26.28a1.16,1.16,0,0,0,1.62.18l1.5-1.4a1.16,1.16,0,0,0-.08-1.62Z"/></g></g></svg>