<svg xmlns="http://www.w3.org/2000/svg" viewBox="0 0 199.67 199.67"><defs><style>.cls-1{fill:none;}</style></defs><title>资源 1</title><g id="图层_2" data-name="图层 2"><g id="图层_1-2" data-name="图层 1"><rect class="cls-1" width="199.67" height="199.67"/><path d="M42.4,174.44l7.91-46.13a8.34,8.34,0,0,0-2.4-7.38L14.4,88.26A8.34,8.34,0,0,1,19,74l46.32-6.73a8.34,8.34,0,0,0,6.28-4.56l20.71-42a8.34,8.34,0,0,1,15,0l20.71,42a8.34,8.34,0,0,0,6.28,4.56L180.59,74a8.34,8.34,0,0,1,4.62,14.22L151.7,120.93a8.34,8.34,0,0,0-2.4,7.38l7.91,46.13a8.34,8.34,0,0,1-12.1,8.79l-41.43-21.78a8.34,8.34,0,0,0-7.76,0L54.5,183.22A8.34,8.34,0,0,1,42.4,174.44Zm61.28-21.85,41,21.54a2.78,2.78,0,0,0,4-2.93l-7.83-45.63a8.34,8.34,0,0,1,2.4-7.38l33.15-32.32a2.78,2.78,0,0,0-1.54-4.74l-45.82-6.66a8.34,8.34,0,0,1-6.28-4.56L102.3,28.4a2.78,2.78,0,0,0-5,0L76.82,69.91a8.34,8.34,0,0,1-6.28,4.56L24.73,81.13a2.78,2.78,0,0,0-1.54,4.74l33.15,32.32a8.34,8.34,0,0,1,2.4,7.38L50.92,171.2a2.78,2.78,0,0,0,4,2.93l41-21.54A8.34,8.34,0,0,1,103.69,152.58Z"/></g></g></svg>