<svg xmlns="http://www.w3.org/2000/svg" xmlns:xlink="http://www.w3.org/1999/xlink" viewBox="0 0 818.75 781.08"><defs><style>.cls-1{fill:url(#未命名的渐变_2);}.cls-2{fill:url(#未命名的渐变_2-2);}</style><linearGradient id="未命名的渐变_2" x1="-1023" y1="334.29" x2="2181" y2="334.29" gradientUnits="userSpaceOnUse"><stop offset="0" stop-color="#ff1872"/><stop offset="0.1" stop-color="#ff236c"/><stop offset="0.28" stop-color="#ff3f5c"/><stop offset="0.51" stop-color="#ff6d43"/><stop offset="0.78" stop-color="#ffab20"/><stop offset="1" stop-color="#ffe500"/></linearGradient><linearGradient id="未命名的渐变_2-2" y1="762.33" y2="762.33" xlink:href="#未命名的渐变_2"/></defs><title>资源 1</title><g id="图层_2" data-name="图层 2"><g id="图层_1-2" data-name="图层 1"><path class="cls-1" d="M662.62,668.58H156.13L75,303.55a76,76,0,1,1,36.11-8.62l149,99.35L400,149.58a76,76,0,1,1,37.58.07l122,244,147.38-98.25a76,76,0,0,1,35.83-143c20.45,0,39.47,7.55,53.55,21.26,14.46,14.09,22.43,33.52,22.43,54.72a76.07,76.07,0,0,1-75.2,76Z"/><path class="cls-2" d="M650.66,781.08H168.1a18.75,18.75,0,0,1,0-37.5H650.66a18.75,18.75,0,0,1,0,37.5Z"/></g></g></svg>