<?xml version="1.0" standalone="no"?><!DOCTYPE svg PUBLIC "-//W3C//DTD SVG 1.1//EN" "http://www.w3.org/Graphics/SVG/1.1/DTD/svg11.dtd"><svg t="1508292969875" class="icon" style="" viewBox="0 0 1024 1024" version="1.1" xmlns="http://www.w3.org/2000/svg" p-id="12791" xmlns:xlink="http://www.w3.org/1999/xlink" width="200" height="200"><defs><style type="text/css"></style></defs><path d="M190.518125 352.444051c-70.555939 0-127.721917 57.181327-127.721917 127.72908 0 70.527286 57.167001 127.718847 127.721917 127.718847 70.51603 0 127.72908-57.19156 127.72908-127.718847C318.247204 409.625378 261.034155 352.444051 190.518125 352.444051zM190.518125 565.323463c-46.981011 0-85.153402-38.186717-85.153402-85.149309 0-46.973848 38.172391-85.156472 85.153402-85.156472 46.941102 0 85.149309 38.182624 85.149309 85.156472C275.667433 527.136745 237.459227 565.323463 190.518125 565.323463zM832.278467 352.444051c-70.555939 0-127.72601 57.181327-127.72601 127.72908 0 70.527286 57.170071 127.718847 127.72601 127.718847 70.51296 0 127.72601-57.19156 127.72601-127.718847C960.004477 409.625378 902.791427 352.444051 832.278467 352.444051zM832.278467 565.323463c-46.941102 0-85.149309-38.186717-85.149309-85.149309 0-46.973848 38.208207-85.156472 85.149309-85.156472 46.938032 0 85.149309 38.182624 85.149309 85.156472C917.427776 527.136745 879.216499 565.323463 832.278467 565.323463zM508.652765 352.444051c-70.555939 0-127.721917 57.181327-127.721917 127.72908 0 70.527286 57.167001 127.718847 127.721917 127.718847 70.51603 0 127.72601-57.19156 127.72601-127.718847C636.378775 409.625378 579.168796 352.444051 508.652765 352.444051zM508.652765 565.323463c-46.938032 0-85.149309-38.186717-85.149309-85.149309 0-46.973848 38.211277-85.156472 85.149309-85.156472 46.945195 0 85.153402 38.182624 85.153402 85.156472C593.806167 527.136745 555.597961 565.323463 508.652765 565.323463z" p-id="12792"></path></svg>