<?xml version="1.0" encoding="utf-8"?>
<!-- Generator: Adobe Illustrator 21.0.0, SVG Export Plug-In . SVG Version: 6.00 Build 0)  -->
<svg version="1.1" id="图层_1" xmlns="http://www.w3.org/2000/svg" xmlns:xlink="http://www.w3.org/1999/xlink" x="0px" y="0px"
	 viewBox="0 0 283.5 283.5" style="enable-background:new 0 0 283.5 283.5;" xml:space="preserve">
<style type="text/css">
	.st0{fill:#FF3649;}
	.st1{fill:#FFFFFF;}
</style>
<circle class="st0" cx="142" cy="142" r="141.5"/>
<path class="st1" d="M219.2,149.8H64.8c-4.3,0-7.8-3.5-7.8-7.8v0c0-4.3,3.5-7.8,7.8-7.8h154.4c4.3,0,7.8,3.5,7.8,7.8v0
	C227,146.3,223.5,149.8,219.2,149.8z"/>
<path class="st1" d="M149.8,64.8v154.4c0,4.3-3.5,7.8-7.8,7.8h0c-4.3,0-7.8-3.5-7.8-7.8V64.8c0-4.3,3.5-7.8,7.8-7.8h0
	C146.3,57,149.8,60.5,149.8,64.8z"/>
</svg>
