<?xml version="1.0" standalone="no"?><!DOCTYPE svg PUBLIC "-//W3C//DTD SVG 1.1//EN" "http://www.w3.org/Graphics/SVG/1.1/DTD/svg11.dtd"><svg t="1505871372824" class="icon" style="" viewBox="0 0 1024 1024" version="1.1" xmlns="http://www.w3.org/2000/svg" p-id="3497" xmlns:xlink="http://www.w3.org/1999/xlink" width="200" height="200"><defs><style type="text/css"></style></defs><path d="M783.756 898.529c0-35.703-29.225-64.928-64.668-64.743-35.552 0.459-64.21 29.392-64.21 65.028 0 0.097 0 0.199 0 0.305 0.459 35.168 28.915 63.541 64.079 63.875 0.171 0 0.348 0 0.513 0 35.5 0 64.285-28.785 64.285-64.285 0-0.062 0-0.125 0-0.194zM417.247 898.529c0-35.703-29.225-64.928-64.668-64.743-35.552 0.459-64.21 29.392-64.21 65.028 0 0.097 0 0.199 0 0.305 0.478 35.173 28.949 63.551 64.127 63.875 0.151 0 0.307 0 0.459 0 35.5 0 64.285-28.785 64.285-64.285 0-0.062 0-0.125 0-0.194z" p-id="3498"></path><path d="M966.015 201.372c-14.473-16.192-37.424-24.761-66.418-24.761l-660.132 0.097c-12.062 0-21.846 9.782-21.846 21.846s9.782 21.846 21.846 21.846l660.628-0.097c14.983 0 27.377 3.761 33.181 10.026 2.497 2.774 4.103 6.393 4.33 10.378l-107.038 393.393c-17.090 44.492-46.029 49.326-57.698 49.326l-3.263-0.132-456.278 0.005c-59.835 2.799-74.907-38.659-75.365-39.994l-165.322-569.299c-2.917-9.149-11.338-15.654-21.276-15.654-2.060 0-4.078 0.286-5.978 0.804-9.012 2.713-15.588 11.076-15.588 20.985 0 2.163 0.311 4.26 0.91 6.228l165.463 569.732c7.892 24.595 41.072 71.093 110.272 71.093 2.747 0 5.604-0.070 7.993-0.226l452.559-0.151c2.188 0.253 4.594 0.412 7.197 0.412 32.566 0 75.314-20.658 97.849-79.553l108.695-401.216c0.412-2.566 3.030-25.263-14.705-45.11z" p-id="3499"></path></svg>