<svg xmlns="http://www.w3.org/2000/svg" viewBox="0 0 705.1 705.1"><title>资源 1</title><g id="图层_2" data-name="图层 2"><g id="图层_1-2" data-name="图层 1"><path d="M352.55,705.1a352.56,352.56,0,0,1-249.3-601.85,352.55,352.55,0,1,1,498.58,498.6A350.24,350.24,0,0,1,352.55,705.1Zm0-672.28c-176.31,0-319.76,143.43-319.76,319.73S176.24,672.33,352.55,672.33,672.28,528.88,672.28,352.55,528.85,32.82,352.55,32.82Zm-85.8,511.59a16.42,16.42,0,0,1-11.58-28.07L419,352.55,255.17,188.7a16.4,16.4,0,1,1,23.17-23.22L449.91,337.07a16.13,16.13,0,0,1,4.16,14.43l-.19,1,.19,1A16.14,16.14,0,0,1,449.89,368L278.34,539.57A16.22,16.22,0,0,1,266.75,544.41Z"/></g></g></svg>