<svg xmlns="http://www.w3.org/2000/svg" viewBox="0 0 54 54"><defs><style>.cls-1{fill:none;}</style></defs><title>资源 1</title><g id="图层_2" data-name="图层 2"><g id="图层_1-2" data-name="图层 1"><rect class="cls-1" width="54" height="54"/><path d="M48.78,53.69a2,2,0,0,1-1.91-1.94l-.09-.52h0a20,20,0,0,0-6.32-12,18.39,18.39,0,0,0-12.79-5.36H26.33a18.45,18.45,0,0,0-12.85,5.36,19.89,19.89,0,0,0-6.26,12h0l-.12.53a2,2,0,0,1-1.87,1.93,2,2,0,0,1-1.93-1.93v-.23a2.07,2.07,0,0,1,.16-.72l.05-.09,0-.1A24.26,24.26,0,0,1,17.63,31.89l.88-.39-.8-.54A16.59,16.59,0,0,1,10.5,17.09,16.25,16.25,0,0,1,15.33,5.26,15.69,15.69,0,0,1,27,.31a15.76,15.76,0,0,1,11.7,4.95A16.25,16.25,0,0,1,43.5,17.09,16.59,16.59,0,0,1,36.29,31l-.81.54.89.39a23.41,23.41,0,0,1,9.57,7.69,23.75,23.75,0,0,1,4.65,11.58c0,.06,0,.13,0,.25l0,.14v0l.06.23A2,2,0,0,1,48.78,53.69ZM27,4.17A12.24,12.24,0,0,0,18,8a12.53,12.53,0,0,0-3.67,9.12A12.77,12.77,0,0,0,17.73,26a11.35,11.35,0,0,0,8.42,4h1.7a11.35,11.35,0,0,0,8.43-4,12.77,12.77,0,0,0,3.42-8.86A12.46,12.46,0,0,0,36,8,12.34,12.34,0,0,0,27,4.17Z"/></g></g></svg>