<svg xmlns="http://www.w3.org/2000/svg" viewBox="0 0 796.47 796.44"><defs><style>.cls-1{fill:#a0a0a0;}</style></defs><title>资源 1</title><g id="图层_2" data-name="图层 2"><g id="图层_1-2" data-name="图层 1"><path class="cls-1" d="M796,318.58h.46L730.93,60.07A79.64,79.64,0,0,0,653.72,0h-511A79.64,79.64,0,0,0,65.56,60.07L0,318.58H.46C.23,322.15,0,325.72,0,329.39,0,372.92,15.2,412,39.21,439.14V716.8a79.65,79.65,0,0,0,79.64,79.64H677a79.65,79.65,0,0,0,79.65-79.64V439.86c24.39-27.22,39.82-66.56,39.82-110.48,0-3.64-.23-7.23-.46-10.81ZM104.18,69.86a39.78,39.78,0,0,1,38.62-30H653.72a39.74,39.74,0,0,1,38.59,30l53,208.89H51.2l53-208.89ZM756.23,318.58c.27,3.5.41,7.05.43,10.67v.25C756.6,388.37,720.17,438,677,438c-22.48,0-44.19-13.52-59.53-37.14l-33.41-51.34-33.38,51.34c-15.34,23.62-37,37.16-59.53,37.16S447,424.53,431.65,400.91l-33.38-51.34-33.38,51.34c-15.36,23.62-37.07,37.16-59.55,37.16s-44.17-13.54-59.53-37.16l-33.38-51.34L179,400.91c-15.36,23.62-37,37.16-59.53,37.16-43.17,0-79.65-49.79-79.65-108.68,0-3.64.14-7.26.41-10.81ZM677,756.62H118.85A39.87,39.87,0,0,1,79,716.8V469a98.45,98.45,0,0,0,40.46,8.92c37.55,0,71-21.6,92.91-55.27,21.91,33.68,55.37,55.27,92.91,55.27s71-21.6,92.93-55.27c21.89,33.68,55.36,55.27,92.91,55.27s71-21.6,92.91-55.27C606,456.29,639.43,477.89,677,477.89a98.17,98.17,0,0,0,39.82-8.65V716.8A39.87,39.87,0,0,1,677,756.62Zm0,0"/></g></g></svg>