<svg xmlns="http://www.w3.org/2000/svg" viewBox="0 0 588.67 590.35"><defs><style>.cls-1{fill:#1a1a1a;}</style></defs><title>资源 2</title><g id="图层_2" data-name="图层 2"><g id="图层_1-2" data-name="图层 1"><path class="cls-1" d="M504.13,213.93c-.41,32.36-10.65,61.85-24.57,90.52-20.89,42.6-48.74,81.1-78.64,117.55a1057.54,1057.54,0,0,1-90.52,96.25c-11.06,10.65-21.3,10.65-33.18.41-59.8-53.66-113.46-112.23-154-181.86-6.55-11.47-12.7-22.94-18-34.82-4.91-11.47-3.69-20.89,6.14-24.58,10.65-4.91,15.56,1.23,21.3,10.65,27,55.3,48.74,88.07,87.66,130.66,15.16,16.38,47.11,44.65,63.49,59.8,7.37,7.38,17.2,3.69,20.07.82,54.07-53.66,112.64-117.15,149.5-185.14,10.65-20.07,18.43-36,21.3-75.77C474.64,129.55,409.1,30,302.19,30c-74.55-2.46-155.64,54.07-179,124.93-5.73,17.61-7.79,44.23-8.19,63.08,0,13.52-5.33,18.84-17.61,18.84S83.06,227,83.06,213.93C83.06,114,151.87,27.56,248.54,5,328.82-13.4,414.42,19.78,463.17,88.18c26.62,37.68,40.14,79.87,41,125.75Zm0,0"/><path class="cls-1" d="M33.91,558h519c-3.68-6.56-56.52-95.44-78.23-131.89-4.51-7.78-4.51-21.3,5.32-25C489.79,397,500,408.9,503.72,415c28.26,49.15,53.66,93.8,81.92,143.36,8.6,15.16-2,31.54-20.07,31.54H282.94c-86,0-172.44-.41-258.46.41C5.23,590.35-6.64,572.74,4,555.13c27.85-46.7,54.07-94.62,81.1-141.72,5.74-10.24,14.75-14.75,24.58-12.29,11.06,5.32,8.6,16.79.82,30.31-14.34,25.39-22.12,38.5-36.86,64.3C65.86,507.2,41.69,544.48,33.91,558Zm0,0"/><path class="cls-1" d="M377.56,210.65A84.52,84.52,0,0,1,293.18,295c-46.29,0-84-38.09-84-84.38a84.26,84.26,0,0,1,84.38-84.37c46.28,0,84,38.09,84,84.37Zm-84-59.8a59.4,59.4,0,1,0,.82,118.79c31.95-.41,58.57-27.45,58.16-59.8,0-31.95-26.62-59-59-59Zm0,0"/></g></g></svg>