<svg xmlns="http://www.w3.org/2000/svg" viewBox="0 0 720.14 664.8"><defs><style>.cls-1{fill:#3b3b3b;}</style></defs><title>资源 1</title><g id="图层_2" data-name="图层 2"><g id="图层_1-2" data-name="图层 1"><path class="cls-1" d="M694,203.06A332.66,332.66,0,0,0,64.62,253.2L48,215.93A25.05,25.05,0,0,0,25.1,201a24.38,24.38,0,0,0-10.2,2.18A25.09,25.09,0,0,0,2.18,236.32l51.4,115.59c.28.63.56,1.2.91,1.83,0,.07.07.14.14.21a7.33,7.33,0,0,0,.91,1.48.25.25,0,0,1,.07.14c.28.35.49.77.77,1.13.14.14.28.35.42.49a6.18,6.18,0,0,0,.56.7,6.1,6.1,0,0,0,.91,1l.07.07c.14.14.28.35.42.49l.56.56a4.57,4.57,0,0,0,.63.56c.21.14.35.28.56.42s.63.49.91.77c.07.07.21.14.28.21.42.35.91.63,1.41,1l.07.07c.42.28.91.56,1.41.84l.14.07a20.61,20.61,0,0,0,3.16,1.41H68c.49.14.91.35,1.48.49l.28.14a13,13,0,0,0,1.34.35l.21.07h.07c.49.07,1,.21,1.48.28.14,0,.36.07.56.07h.07a4,4,0,0,0,.91.07h.07c.21,0,.42.07.63.07A4,4,0,0,1,76,367h.56c.63,0,1.34,0,2.11-.07h.14a20.09,20.09,0,0,0,2-.28c.14,0,.21-.07.28-.07q1.05-.21,1.9-.42c.07,0,.21-.07.28-.07h.07a12,12,0,0,0,1.48-.49h.07c.14-.07.28-.07.42-.14a10.88,10.88,0,0,0,1.34-.56h.07c.07,0,.14-.07.21-.07a4.21,4.21,0,0,0,.56-.28c.56-.28,1.13-.56,1.62-.84.07-.07.14-.07.21-.14l.07-.07a29.41,29.41,0,0,0,3.8-2.81l95.34-83.39a25.09,25.09,0,0,0-33-37.76l-45.21,39.59c25.31-131.48,142.17-229,277.31-229C543.31,50.06,670,176.76,670,332.44S543.31,614.81,387.64,614.81a282.51,282.51,0,0,1-183.73-67.92,25.11,25.11,0,0,0-35.37,2.67,25,25,0,0,0,2.74,35.3A332.52,332.52,0,0,0,694,203.06m-205,5.41a25.12,25.12,0,0,0-35.43,0l-66,66-66-66a25.06,25.06,0,1,0-35.43,35.44L327,284.76H287.15a4.86,4.86,0,0,0-4.85,4.85V330a4.86,4.86,0,0,0,4.85,4.85h75.3v33.54h-75.3a4.86,4.86,0,0,0-4.85,4.85v40.43a4.86,4.86,0,0,0,4.85,4.85h75.3v75.3a25,25,0,1,0,50.06,0v-75.3H487.9a4.86,4.86,0,0,0,4.85-4.85V373.29a4.86,4.86,0,0,0-4.85-4.85H412.52V334.9H487.9a4.86,4.86,0,0,0,4.85-4.85V289.62a4.86,4.86,0,0,0-4.85-4.85H448L489,243.84a25,25,0,0,0,0-35.37Zm0,0"/></g></g></svg>