<svg xmlns="http://www.w3.org/2000/svg" viewBox="0 0 715.26 715.25"><defs><style>.cls-1{fill:#3b3b3b;}</style></defs><title>资源 2</title><g id="图层_2" data-name="图层 2"><g id="图层_1-2" data-name="图层 1"><path class="cls-1" d="M357.63,715.25C160.43,715.25,0,554.82,0,357.63S160.43,0,357.63,0,715.26,160.43,715.26,357.63,554.83,715.25,357.63,715.25Zm0-674.23C183.05,41,41,183.05,41,357.63s142,316.6,316.61,316.6,316.61-142,316.61-316.6S532.21,41,357.63,41Zm0,0"/><path class="cls-1" d="M299.25,496.92a20.48,20.48,0,0,1-14.5-6L166,372.13a20.51,20.51,0,1,1,29-29L299.25,447.4l218-217.94a20.51,20.51,0,1,1,29,29L313.75,490.91a20.52,20.52,0,0,1-14.5,6Zm0,0"/></g></g></svg>