<svg xmlns="http://www.w3.org/2000/svg" xmlns:xlink="http://www.w3.org/1999/xlink" viewBox="0 0 712.29 712.29"><defs><style>.cls-1{fill:none;}.cls-2{clip-path:url(#clip-path);}</style><clipPath id="clip-path" transform="translate(0 -0.51)"><rect class="cls-1" x="0.12" width="712.8" height="713.76"/></clipPath></defs><title>资源 1</title><g id="图层_2" data-name="图层 2"><g id="图层_1-2" data-name="图层 1"><g class="cls-2"><path d="M356.15.51C159.45.51,0,160,0,356.66S159.45,712.8,356.15,712.8,712.29,553.35,712.29,356.66,552.84.51,356.15.51ZM320.53,202.73a35.62,35.62,0,0,1,71.23,0V416.42a35.62,35.62,0,0,1-71.23,0Zm35.62,357.58a35.62,35.62,0,1,1,35.61-35.61,35.62,35.62,0,0,1-35.61,35.61Zm0,0" transform="translate(0 -0.51)"/></g></g></g></svg>