<svg xmlns="http://www.w3.org/2000/svg" xmlns:xlink="http://www.w3.org/1999/xlink" viewBox="0 0 750.93 750.93"><defs><style>.cls-1{fill:none;}.cls-2{clip-path:url(#clip-path);}</style><clipPath id="clip-path" transform="translate(0 -0.03)"><rect class="cls-1" x="0.12" width="750.88" height="751.92"/></clipPath></defs><title>资源 1</title><g id="图层_2" data-name="图层 2"><g id="图层_1-2" data-name="图层 1"><g class="cls-2"><path d="M375.46,0A375.47,375.47,0,1,0,750.93,375.49,374.39,374.39,0,0,0,375.46,0ZM520.54,467.65c10.24,10.24,10.24,25.6,0,35.84s-25.6,10.24-35.84,0L384,402.8,283.31,503.49c-10.24,10.24-25.6,10.24-35.84,0s-10.24-25.6,0-35.84L348.16,367l-100.7-100.7c-10.24-10.24-10.24-25.6,0-35.84s25.6-10.24,35.84,0L384,331.12l100.69-100.7c10.24-10.24,25.6-10.24,35.84,0s10.24,25.6,0,35.84L419.84,367Zm0,0" transform="translate(0 -0.03)"/></g></g></g></svg>