<svg xmlns="http://www.w3.org/2000/svg" viewBox="0 0 819.2 819.2"><defs><style>.cls-1{fill:#4e8cee;}</style></defs><title>资源 1</title><g id="图层_2" data-name="图层 2"><g id="图层_1-2" data-name="图层 1"><path class="cls-1" d="M552.25,574.3l-12.07,12.06a25.61,25.61,0,0,1-36.21,0L378.38,460.77a25.52,25.52,0,0,1-19-24.64v-256a25.59,25.59,0,0,1,25.59-25.59H402a25.59,25.59,0,0,1,25.59,25.59V413.48L552.25,538.09a25.61,25.61,0,0,1,0,36.21ZM409.6,0C183.4,0,0,183.38,0,409.6S183.38,819.2,409.6,819.2,819.2,635.82,819.2,409.6,635.8,0,409.6,0Zm0,0"/></g></g></svg>