<svg xmlns="http://www.w3.org/2000/svg" xmlns:xlink="http://www.w3.org/1999/xlink" viewBox="0 0 727.5 727.5"><defs><style>.cls-1{fill:none;}.cls-2{clip-path:url(#clip-path);}</style><clipPath id="clip-path" transform="translate(0 -0.42)"><rect class="cls-1" x="0.12" width="727.88" height="728.88"/></clipPath></defs><title>资源 1</title><g id="图层_2" data-name="图层 2"><g id="图层_1-2" data-name="图层 1"><g class="cls-2"><path d="M344.95,289.35H471.64v40H344.95ZM363.75.42C162.85.42,0,163.27,0,364.17S162.85,727.92,363.75,727.92,727.5,565.06,727.5,364.17,564.65.42,363.75.42ZM511.32,353.35l16,21-3.84,2.38c-20.57,12.74-40.92,24.89-60.57,36.18,9.93,6.27,23.36,14.79,40.05,25.4,9.3,5.89,16.63,10.49,21.78,13.68l3.87,2.39L510.5,477.82l-3.19-2.2c-49.25-33.95-94.58-63.76-134.71-88.61l-4-2.49,16.86-20,3,1.84q11.18,6.86,32.28,19.84c7.82,4.94,14,8.8,18.43,11.51,28.31-16.89,51.52-31.12,69-42.31Zm-202,113.07c5.8-6.34,8.52-14,8.3-23.29V199.65H498.58v154.8H344.95v94.11c25-10.69,46.78-20.16,64.74-28.19L415,418l.4,5.86a155.55,155.55,0,0,0,2.64,19.85l.69,3.45-3.3,1.21c-23.81,8.69-47.24,18.47-69.62,29.07-4.91,2.34-11.22,5.86-18.73,10.43l-3,1.84-17.18-20.61Zm-80.21-275.1,2.25,2.89c13.93,17.9,29.27,39,45.58,62.58l2.44,3.53-24.73,15.39-2.19-3.36c-16.23-24.93-31-46.21-43.84-63.24l-2.72-3.61Zm312,316.53a97.65,97.65,0,0,0-6.4,19.56l-.7,3.24h-3.32c-82.8-.24-145.86-1.15-187.42-2.7-44.35,0-78.15-14.19-100.56-42.15-13.26,15.42-25.59,31-36.69,46.4l-2.64,3.67-21.9-19.35,2.59-3.06c16-19,31.59-36.5,46.28-52.17V338.58h-44V311.82h71.49V464.53c19.57,24.66,49.42,37.17,88.76,37.17h.66c22,.6,53.67,1,94.21,1.08l20.27,0c32.5,0,57.91-.25,75.53-.75l6.55-.18Zm-196.19-283H471.64v39.77H344.95Zm0,0" transform="translate(0 -0.42)"/></g></g></g></svg>