<svg xmlns="http://www.w3.org/2000/svg" viewBox="0 0 818.75 781.08"><title>资源 1</title><g id="图层_2" data-name="图层 2"><g id="图层_1-2" data-name="图层 1"><path d="M662.62,668.58H156.13L75,303.55a76,76,0,1,1,36.11-8.62l149,99.35L400,149.58a76,76,0,1,1,37.58.07l122,244,147.38-98.25a76,76,0,0,1,35.83-143c20.45,0,39.47,7.55,53.55,21.26,14.46,14.09,22.43,33.52,22.43,54.72a76.07,76.07,0,0,1-75.2,76ZM186.34,630.92H632.41l62.76-282.43L545,448.63,417.8,194.31,272.83,448l-149.25-99.5ZM742.77,190.07a38.33,38.33,0,1,0,8.65,75.66l.84-.56-.09.38a38.39,38.39,0,0,0,28.91-37.16c0-22.2-16.12-38.32-38.33-38.32ZM76,189.25a38.32,38.32,0,1,0,38.32,38.32A38.37,38.37,0,0,0,76,189.25ZM418.9,37.66A38.33,38.33,0,1,0,457.23,76,38.37,38.37,0,0,0,418.9,37.66Zm0,0"/><path d="M650.66,781.08H168.1a18.75,18.75,0,0,1,0-37.5H650.66a18.75,18.75,0,0,1,0,37.5Z"/></g></g></svg>