<svg xmlns="http://www.w3.org/2000/svg" viewBox="0 0 658.95 573.4"><title>资源 1</title><g id="图层_2" data-name="图层 2"><g id="图层_1-2" data-name="图层 1"><path d="M648.09,85.9c-11.56-16-31.11-25.66-52.16-25.66H216.68a14.74,14.74,0,1,0,0,29.48H595.86c11.63,0,22.16,5,28.22,13.38,5.74,8,6.86,17.85,3.19,28.69l-45.37,136c-3.27,9.24-15.4,39.52-35.49,39.52H167.63L130.71,30.84A35.68,35.68,0,0,0,95.38,0H14.75a14.74,14.74,0,1,0,0,29.48H95.38a6.19,6.19,0,0,1,6.06,5.27l47.13,353c5,30.05,25.27,49.41,51.67,49.41h371a14.74,14.74,0,1,0,0-29.48h-371c-17.07,0-21.62-19-22.48-24.31l-6.23-46.54H546.42c27.11,0,50.16-21.59,63.47-59.52l45.46-136.18c6.62-19.84,4.07-39.45-7.25-55.22Zm-389,371a58.25,58.25,0,1,0,58.29,58.24,58.33,58.33,0,0,0-58.29-58.24Zm0,86.93a28.77,28.77,0,1,1,28.79-28.77,28.81,28.81,0,0,1-28.79,28.77Zm253.2-86.93a58.25,58.25,0,1,0,58.29,58.24,58.33,58.33,0,0,0-58.29-58.24Zm0,86.93a28.77,28.77,0,1,1,28.78-28.77,28.81,28.81,0,0,1-28.78,28.77Zm0,0"/></g></g></svg>