<svg xmlns="http://www.w3.org/2000/svg" xmlns:xlink="http://www.w3.org/1999/xlink" viewBox="0 0 819.2 732.98"><defs><style>.cls-1{fill:none;}.cls-2{clip-path:url(#clip-path);}</style><clipPath id="clip-path"><rect class="cls-1" x="0.12" y="0.02" width="819.84" height="733.92"/></clipPath></defs><title>资源 1</title><g id="图层_2" data-name="图层 2"><g id="图层_1-2" data-name="图层 1"><g class="cls-2"><path d="M409.6,733a21.65,21.65,0,0,1-10.34-2.56A1177.26,1177.26,0,0,1,201.37,585.93C143.57,533.76,97.43,480.31,64.26,427.27,21.5,359.58,0,291.89,0,226.36.28,101.46,101.46.28,226.35,0c42.24,0,87.09,16,126.31,44.39,22.89,16.84,42.7,37.12,56.94,58.68a236,236,0,0,1,56.93-58.68C505.75,15.51,550.6,0,592.84,0,717.8.14,819.06,101.4,819.2,226.36c0,65.53-21.55,133.22-63.79,200.91C722.18,480.31,676,533.76,618.29,586,520.4,674.36,424.24,727.81,420.4,730.37a24.73,24.73,0,0,1-10.8,2.56ZM226.35,43.11A183.66,183.66,0,0,0,43.11,226.41c0,131,101.38,250,186.27,326.76A1197.75,1197.75,0,0,0,409.6,686.39,1166.63,1166.63,0,0,0,589.82,553.16c84.94-76.75,186.27-195.74,186.27-326.81A183.66,183.66,0,0,0,592.79,43.11c-73.22,0-144.84,60.42-162.92,114.69a21.75,21.75,0,0,1-20.27,14.64,21.35,21.35,0,0,1-20.28-14.64c-18.07-54.27-89.65-114.69-163-114.69Zm0,0"/></g></g></g></svg>