<svg xmlns="http://www.w3.org/2000/svg" viewBox="0 0 673.4 715.47"><defs><style>.cls-1{fill:#999;}</style></defs><title>资源 2</title><g id="图层_2" data-name="图层 2"><g id="图层_1-2" data-name="图层 1"><path class="cls-1" d="M653.55,112.35l.3.27S518,254.19,458.71,315.4c-4.2,4.33-12.43,12.28-14.7,17.94-2.37,5.91-2.08,18.58-2.08,25,0,117.07,1.51,332.45,1.51,332.45s.41,24.69-23.81,24.7c-18.76,0-19.68-19-19.68-24.7,0-160.33-.07-251-.1-339.06,0-23.39-1.75-28,.71-36.47,2.88-9.9,20.21-22.87,27.61-29.79C487.32,230.19,624.1,81.93,624.1,81.93l-.09-.24a22,22,0,0,0,7.61-16.53c0-12.18-9.56-22.07-21.37-22.07H63.14c-11.81,0-21.39,9.9-21.39,22.07a22,22,0,0,0,7.63,16.53l-.07.24s131.56,140.77,191.9,199c6,5.75,27.48,23,31.17,34.21,2.2,6.7,1.21,40.33,1.21,40.33v165.3s-2.81,9.3-21.35,9.23c-17.12-.06-20.75-9.3-20.75-9.3s-2.37-86.07,0-165.86c.17-5.48-1-17-2.6-21.59-2.14-6-9.95-14.06-14.37-18.16-62.4-57.71-195-202.46-195-202.46l.29-.27A65.66,65.66,0,0,1,0,65.16C0,29.16,28.26,0,63.14,0H610.26c34.88,0,63.14,29.16,63.14,65.16a65.7,65.7,0,0,1-19.84,47.19Zm0,0"/></g></g></svg>