<svg xmlns="http://www.w3.org/2000/svg" xmlns:xlink="http://www.w3.org/1999/xlink" viewBox="0 0 834.95 798.85"><defs><style>.cls-1{fill:none;}.cls-2{clip-path:url(#clip-path);}</style><clipPath id="clip-path"><rect class="cls-1" x="0.12" y="0.01" width="834.88" height="799.84"/></clipPath></defs><title>资源 1</title><g id="图层_2" data-name="图层 2"><g id="图层_1-2" data-name="图层 1"><g class="cls-2"><path d="M393.67,56.85a32.33,32.33,0,0,1,46,0L794.57,413.79a23.63,23.63,0,0,0,33.51-33.33L473.19,23.57a79.6,79.6,0,0,0-113.11,0L6.84,380.51a23.63,23.63,0,0,0,33.59,33.25Zm0,0"/></g><path d="M693.92,647c0,31.13-7.23,57.06-21.77,72.36-20.86,21.92-39.06,32.23-57.75,32.23H220.56c-21.4,0-48.94-13.12-67.15-32.25C135,700,122.28,670.4,122.28,647V327.5a23.63,23.63,0,0,0-47.26,0V647c0,36,17.67,77,44.14,104.91,26.72,28.08,66.33,46.94,101.4,46.94H614.4c33.92,0,63.06-16.51,92-46.93,24.41-25.7,34.77-62.82,34.77-104.92V304.72a23.63,23.63,0,0,0-47.26,0Zm0,0"/><path d="M304.95,751.59l23.63,23.63V538.91c0-49.64,39.84-89.8,88.89-89.8s88.9,40.16,88.9,89.8V775.22L530,751.59Zm248.69,47.26V538.91c0-75.66-60.91-137.06-136.16-137.06s-136.16,61.4-136.16,137.06V798.85Zm0,0"/></g></g></svg>