<svg xmlns="http://www.w3.org/2000/svg" xmlns:xlink="http://www.w3.org/1999/xlink" viewBox="0 0 640.19 692.63"><defs><style>.cls-1{fill:none;}.cls-2{clip-path:url(#clip-path);}</style><clipPath id="clip-path" transform="translate(-32.44 -30.53)"><rect class="cls-1" x="30.89" y="31.8" width="663.84" height="662.88" transform="matrix(0.1, -1, 1, 0.1, -34.72, 688.12)"/></clipPath></defs><title>资源 2</title><g id="图层_2" data-name="图层 2"><g id="图层_1-2" data-name="图层 1"><g class="cls-2"><path d="M320.7,669.12C145.08,651.56,16.49,494.4,34,318.79S208.76,14.58,384.38,32.13,688.59,206.85,671,382.47,496.31,686.67,320.7,669.12Zm58.78-588C230.88,66.28,97.91,175.09,83.05,323.69S177,605.26,325.6,620.11s281.57-94,296.43-242.54S528.07,96,379.48,81.14Zm0,0" transform="translate(-32.44 -30.53)"/><path d="M634.76,723a24.57,24.57,0,0,1-16.61-8.91L531.93,608.76a24.63,24.63,0,0,1,38.12-31.19l86.22,105.37A24.63,24.63,0,0,1,634.76,723Zm0,0" transform="translate(-32.44 -30.53)"/></g></g></g></svg>