<svg xmlns="http://www.w3.org/2000/svg" viewBox="0 0 691.58 1171.01"><defs><style>.cls-1{fill:#fff;}</style></defs><title>资源 4</title><g id="图层_2" data-name="图层 2"><g id="图层_1-2" data-name="图层 1"><path class="cls-1" d="M673.21,655.9c-15.42-27-14.6-44.35-107.66-128.34C566.07,223.9,357.24,13.33,344.34.61V0L344,.3l-.31-.3s0,.21,0,.61C330.86,13.4,123,224.91,124.87,528.59,32.19,613,33.08,630.32,17.8,657.42c-27.92,49.45-20.67,247.22,5.65,292.1s69.94,12.33,84.89-.18,80.93-95.07,97.17-91.36c0,0,20-3.79,42.49,17.38,22.25,20.93,62.78,40.56,97.47,43.36a.59.59,0,0,1,0,.11l.63-.06.62.06a.65.65,0,0,1,0-.11c34.69-2.94,75.13-22.78,97.28-43.8,22.42-21.27,42.41-17.58,42.41-17.58,16.22-3.78,82.58,78.45,97.58,90.91s58.78,44.81,84.89-.2,32.47-242.81,4.34-292.15Zm-328-116.59A104.86,104.86,0,1,1,449.87,434.2,104.86,104.86,0,0,1,345.23,539.31ZM423,959.87c-26.4,19.89-53.05,26.56-77.34,26.27-24.28.39-51-6.16-77.46-25.91-23.76-16.92-45-14.61-56.18.13s-7.25,104.19,6.53,123.41,29.92-12.52,53.64-13.73,43.43,46.33,52.42,73.48c4.59,13.88,11.75,26.57,21.46,27.48,9.72-1,16.83-13.68,21.35-27.58,8.87-27.2,28.38-74.79,52.09-73.72s40,32.75,53.72,13.45,17.22-108.72,6-123.42-32.49-16.91-56.18.12Zm0,0"/></g></g></svg>