<svg xmlns="http://www.w3.org/2000/svg" viewBox="0 0 834.95 798.85"><defs><style>.cls-1{fill:#fff;}</style></defs><title>资源 3</title><g id="图层_2" data-name="图层 2"><g id="图层_1-2" data-name="图层 1"><path class="cls-1" d="M828.08,380.47,473.19,23.57a79.6,79.6,0,0,0-113.11,0L6.84,380.51a23.63,23.63,0,0,0,33.59,33.25L75,378.8V647c0,36,17.67,77,44.14,104.91,26.72,28.08,66.33,46.95,101.4,46.95H614.4c33.92,0,63.06-16.51,92-46.93,24.41-25.7,34.77-62.82,34.77-104.92V360.1l53.39,53.69a23.63,23.63,0,0,0,33.51-33.33ZM506.38,751.59H328.58V538.91c0-49.64,39.84-89.8,88.9-89.8s88.9,40.16,88.9,89.8Z"/></g></g></svg>