<svg xmlns="http://www.w3.org/2000/svg" xmlns:xlink="http://www.w3.org/1999/xlink" viewBox="0 0 678.68 581.59"><defs><style>.cls-1{fill:url(#未命名的渐变_10);}</style><linearGradient id="未命名的渐变_10" x1="-1066.95" y1="290.79" x2="2083.37" y2="290.79" gradientUnits="userSpaceOnUse"><stop offset="0" stop-color="#ff1872"/><stop offset="0.1" stop-color="#ff236c"/><stop offset="0.28" stop-color="#ff3f5c"/><stop offset="0.51" stop-color="#ff6d43"/><stop offset="0.78" stop-color="#ffab20"/><stop offset="1" stop-color="#ffe500"/></linearGradient></defs><title>资源 2</title><g id="图层_2" data-name="图层 2"><g id="图层_1-2" data-name="图层 1"><path class="cls-1" d="M632.09,500.36h.06V500ZM195,5.6H41.8A41.85,41.85,0,0,0,0,47.39V200.64a41.84,41.84,0,0,0,41.8,41.79H195a41.83,41.83,0,0,0,41.79-41.79V47.39A41.85,41.85,0,0,0,195,5.6m-1.43,343.59H43.24a41.08,41.08,0,0,0-41,41V540.58a41.05,41.05,0,0,0,41,41H193.61a41.05,41.05,0,0,0,41-41V390.19a41.09,41.09,0,0,0-41-41M375.41,47.64a4.41,4.41,0,0,0,2.43.77h1.71a5,5,0,0,0,1.32,0H651.8a6.08,6.08,0,0,0,.67.05,4,4,0,0,0,.64-.05h1.4a4,4,0,0,0,2-.6A24,24,0,0,0,676.64,24.3,23.94,23.94,0,0,0,657.09.9a4.32,4.32,0,0,0-2.58-.9H377.84a3.89,3.89,0,0,0-2.41,1A24,24,0,0,0,356,24.3a24,24,0,0,0,19.39,23.34M375.07,227a4.14,4.14,0,0,0,2.77,1.09H654.51a4,4,0,0,0,2.35-.9,23.8,23.8,0,0,0-.23-46.94,4.19,4.19,0,0,0-2.13-.57l-.67.11a6.81,6.81,0,0,0-2.21-.11l-270.07.11a6.9,6.9,0,0,0-2.21-.11h-1.51a3.56,3.56,0,0,0-2.13.68,23.73,23.73,0,0,0-.64,46.64m0,181.78a4.14,4.14,0,0,0,2.74,1H654.51a4.15,4.15,0,0,0,1.15-.16,24.16,24.16,0,0,0-1.15-48.29,6.42,6.42,0,0,0-.67.06h-273a4.88,4.88,0,0,0-1.31,0h-1.68a3.77,3.77,0,0,0-2.18.7,23.75,23.75,0,0,0-.56,46.66m281,112.59a4.21,4.21,0,0,0-1.57-.31H377.84a3.67,3.67,0,0,0-2.49,1.09,23.75,23.75,0,0,0,.31,46.72,4.12,4.12,0,0,0,2.18.59l.7-.11a8.14,8.14,0,0,0,2.52.11l271.77-.11a9.85,9.85,0,0,0,1.68.28,24.16,24.16,0,0,0,1.57-48.26"/></g></g></svg>