<svg xmlns="http://www.w3.org/2000/svg" viewBox="0 0 656.28 747.13"><title>资源 1</title><g id="图层_2" data-name="图层 2"><g id="图层_1-2" data-name="图层 1"><path d="M560.15,496.87a18.22,18.22,0,1,0-25.76,25.78,289.81,289.81,0,0,1,85.43,206.26,18.23,18.23,0,0,0,36.46,0,326,326,0,0,0-96.13-232ZM328.15,0C207.5,0,109.38,98.15,109.38,218.77c0,86,49.92,160.61,122.32,196.32A328.7,328.7,0,0,0,0,728.91a18.23,18.23,0,0,0,36.46,0A291.65,291.65,0,0,1,319.78,437.36c2.78.1,5.56.17,8.36.17,120.63,0,218.76-98.13,218.76-218.76S448.77,0,328.15,0Zm3,401a18.13,18.13,0,0,0-3.07-.27q-4.17,0-8.32.11c-96.65-4.38-174-84.39-174-182.1,0-100.53,81.79-182.3,182.31-182.3s182.3,81.77,182.3,182.3c0,99.49-80.14,180.62-179.26,182.26Zm0,0"/></g></g></svg>