<?xml version="1.0" encoding="utf-8"?>
<!-- Generator: Adobe Illustrator 17.0.0, SVG Export Plug-In . SVG Version: 6.00 Build 0)  -->
<!DOCTYPE svg PUBLIC "-//W3C//DTD SVG 1.1//EN" "http://www.w3.org/Graphics/SVG/1.1/DTD/svg11.dtd">
<svg version="1.1" id="图层_1" xmlns="http://www.w3.org/2000/svg" xmlns:xlink="http://www.w3.org/1999/xlink" x="0px" y="0px"
	 width="70px" height="67.5px" viewBox="0 0 70 67.5" enable-background="new 0 0 70 67.5" xml:space="preserve">
<g>
	<g>
		<path fill="#616161" d="M52.214,32.623h0.021l-2.962-11.684c-0.405-1.597-1.842-2.715-3.49-2.715H22.688
			c-1.648,0-3.085,1.118-3.49,2.715l-2.962,11.684h0.02c-0.01,0.162-0.021,0.323-0.021,0.489c0,1.968,0.687,3.734,1.772,4.961v12.55
			c0,1.988,1.612,3.6,3.6,3.6h25.228c1.988,0,3.6-1.612,3.6-3.6V38.105c1.103-1.23,1.8-3.008,1.8-4.994
			C52.234,32.947,52.224,32.784,52.214,32.623L52.214,32.623z M20.943,21.381c0.202-0.799,0.921-1.359,1.745-1.358h23.094
			c0.825,0,1.543,0.558,1.744,1.358l2.394,9.442H18.549l2.393-9.442H20.943z M50.416,32.623c0.012,0.158,0.019,0.319,0.02,0.482
			v0.011c-0.003,2.661-1.65,4.906-3.6,4.906c-1.016,0-1.997-0.611-2.691-1.679l-1.51-2.32l-1.509,2.32
			c-0.693,1.068-1.675,1.68-2.691,1.68c-1.016,0-1.997-0.612-2.691-1.68l-1.509-2.32l-1.509,2.32
			c-0.694,1.068-1.676,1.68-2.692,1.68c-1.016,0-1.997-0.612-2.691-1.68l-1.509-2.32l-1.509,2.32
			c-0.694,1.068-1.674,1.68-2.691,1.68c-1.951,0-3.6-2.25-3.6-4.912c0-0.165,0.006-0.328,0.019-0.489H50.416z M46.836,52.422H21.607
			c-0.992,0-1.8-0.807-1.8-1.8V39.42c0.574,0.263,1.197,0.4,1.829,0.403c1.697,0,3.209-0.976,4.199-2.498
			c0.99,1.522,2.503,2.498,4.2,2.498c1.697,0,3.21-0.976,4.201-2.498c0.989,1.522,2.502,2.498,4.199,2.498s3.21-0.976,4.199-2.498
			c0.991,1.522,2.502,2.498,4.201,2.498c0.632,0,1.236-0.142,1.8-0.391v11.189c0,0.992-0.807,1.8-1.8,1.8H46.836z M46.836,52.422"/>
	</g>
</g>
</svg>
