<svg xmlns="http://www.w3.org/2000/svg" xmlns:xlink="http://www.w3.org/1999/xlink" viewBox="0 0 665.04 665.13"><defs><style>.cls-1{fill:none;}.cls-2{clip-path:url(#clip-path);}</style><clipPath id="clip-path" transform="translate(0 -0.88)"><rect class="cls-1" x="0.12" width="665.88" height="666.96"/></clipPath></defs><title>资源 1</title><g id="图层_2" data-name="图层 2"><g id="图层_1-2" data-name="图层 1"><g class="cls-2"><path d="M562.32,460.07a102.19,102.19,0,0,0-77.82,35.79L280.63,366.94a147.14,147.14,0,0,0-1-121.39L469.27,137.09a86.67,86.67,0,1,0-15.56-49.55A84.24,84.24,0,0,0,455,102L259.66,213.77a146.14,146.14,0,0,0-113-53.33C65.61,160.44,0,226.22,0,307.31S65.69,454.18,146.62,454.18A146.11,146.11,0,0,0,261.14,399L465.5,528.22a102.77,102.77,0,1,0,96.82-68.15ZM539.88,38.8a49.06,49.06,0,1,1-49,49.07,49,49,0,0,1,49-49.07Zm-394.4,380c-60.78,0-110.09-49.39-110.09-110.34A110.09,110.09,0,1,1,145.48,418.79ZM562.32,628.24a65.2,65.2,0,1,1,65-65.2,65.15,65.15,0,0,1-65,65.2Zm0,0" transform="translate(0 -0.88)"/></g></g></g></svg>