<svg xmlns="http://www.w3.org/2000/svg" viewBox="0 0 662.99 658.89"><title>资源 1</title><g id="图层_2" data-name="图层 2"><g id="图层_1-2" data-name="图层 1"><path d="M126.57,511.25l-5-3.59c-37.68-26.91-67.28-58.6-88-94.21A243.92,243.92,0,0,1,0,289.3,256.15,256.15,0,0,1,25.92,177C42.57,142.54,66.42,111.6,96.8,85c62.65-54.82,146-85,234.69-85s172,30.19,234.69,85c30.38,26.59,54.23,57.53,70.88,92a256.38,256.38,0,0,1,0,224.68c-16.64,34.44-40.49,65.38-70.87,92-62.65,54.82-146,85-234.7,85H273.71L126.57,658.89Zm30.19,92.09,119.78-54.91h54.94c166.16,0,301.33-116.24,301.33-259.13,0-69.39-31.46-134.58-88.59-183.55C487.35,57,411.81,30.17,331.5,30.17h0C165.34,30.17,30.16,146.42,30.16,289.3c0,84.22,48.42,166,126.59,214.3Zm343.5-277.85a36.2,36.2,0,1,1,36.18-36.2,36.25,36.25,0,0,1-36.18,36.2Zm-168.77,0a36.2,36.2,0,1,1,36.2-36.2A36.24,36.24,0,0,1,331.49,325.49Zm-168.75,0a36.2,36.2,0,1,1,36.2-36.19A36.22,36.22,0,0,1,162.74,325.49Z"/></g></g></svg>