<svg xmlns="http://www.w3.org/2000/svg" xmlns:xlink="http://www.w3.org/1999/xlink" viewBox="0 0 750.43 733.95"><defs><style>.cls-1{fill:none;}.cls-2{clip-path:url(#clip-path);}</style><clipPath id="clip-path"><rect class="cls-1" x="0.12" y="0.03" width="750.88" height="734.88"/></clipPath></defs><title>资源 1</title><g id="图层_2" data-name="图层 2"><g id="图层_1-2" data-name="图层 1"><g class="cls-2"><path d="M740.59,314c8.53-10.24,11.95-23.9,8.53-35.84s-13.65-22.19-27.3-23.89L510.18,211.63,406.08,18.77C399.25,6.83,387.3,0,375.36,0s-25.6,6.83-30.72,18.77L238.82,211.63l-209.92,41c-13.65,1.71-23.89,12-27.3,23.89s-1.71,27.3,8.54,35.84L156.9,472.75v1.71L129.6,692.91C127.89,706.56,133,718.51,145,727a32.79,32.79,0,0,0,20.48,6.83c5.12,0,10.24-1.71,15.36-3.41l194.56-93.87,194.56,93.87c11.94,5.12,25.6,5.12,35.84-3.41s17.07-20.48,15.36-34.13l-27.3-216.75v-1.71ZM569.92,450.56c-6.83,8.54-10.24,18.77-8.54,29l27.31,216.75c0,1.71,0,1.71-1.71,1.71L390.72,605.87c-5.12-1.71-10.24-3.41-15.36-3.41s-10.24,1.71-15.36,3.41L165.44,698l-1.71-1.71L191,479.57c1.71-10.24-1.71-20.48-8.53-29L34,290.13v-1.71a1.67,1.67,0,0,1,1.71-1.71l209.92-41c10.24-1.71,18.77-8.54,23.89-18.77L373.65,35.84c0-1.71,1.71-1.71,3.41,0L481.17,228.69c5.12,10.24,13.65,15.36,23.89,18.77l209.92,41a1.67,1.67,0,0,1,1.71,1.71v1.71Zm0,0"/></g></g></g></svg>